<svg width="112" height="142" viewBox="0 0 112 142" fill="none" xmlns="http://www.w3.org/2000/svg">
<rect y="98.8" width="111.8" height="42.9" rx="20" fill="#D6D6D6"/>
<rect x="40.3" y="7.8" width="31.2" height="91" fill="#D6D6D6"/>
<rect x="35.1" width="41.6" height="7.8" rx="3.9" fill="#D6D6D6"/>
<path fill-rule="evenodd" clip-rule="evenodd" d="M38.7167 42.6242C39.762 31.5836 40.3 19.7503 40.3 7.8V98.8H19.5C22.2315 98.8 24.9362 96.4462 27.4598 91.873C29.9834 87.2999 32.2764 80.5969 34.2078 72.1467C36.1393 63.6966 37.6714 53.6648 38.7167 42.6242Z" fill="#D6D6D6"/>
<path fill-rule="evenodd" clip-rule="evenodd" d="M92.3 98.8H71.5V7.83897C71.5012 19.776 72.0391 31.5956 73.0833 42.6242C74.1286 53.6648 75.6607 63.6966 77.5922 72.1467C79.5236 80.5969 81.8166 87.2999 84.3402 91.873C86.8638 96.4462 89.5685 98.8 92.3 98.8Z" fill="#D6D6D6"/>
<rect x="0.5" y="99.3" width="110.8" height="41.9" rx="19.5" fill="#BEFF53" fill-opacity="0.6" stroke="#D6D6D6"/>
<rect x="40.3" y="93.6" width="22.1" height="10.4" fill="#C7EF87"/>
<circle cx="33.8" cy="96.2" r="7.6" fill="#AEFF2E" stroke="#D6D6D6" stroke-width="0.4"/>
<circle cx="44.2" cy="92.3" r="5" fill="#AEFF2E" stroke="#D6D6D6" stroke-width="0.4"/>
<circle cx="58.5" cy="96.2" r="5" fill="#AEFF2E" stroke="#D6D6D6" stroke-width="0.4"/>
<circle cx="70.2" cy="97.5" r="7.6" fill="#AEFF2E" stroke="#D6D6D6" stroke-width="0.4"/>
<circle cx="52" cy="93.6" r="2.4" fill="#AEFF2E" stroke="#D6D6D6" stroke-width="0.4"/>
<circle cx="81.9" cy="98.8" r="5" fill="#AEFF2E" stroke="#D6D6D6" stroke-width="0.4"/>
<path fill-rule="evenodd" clip-rule="evenodd" d="M32.7354 78C32.9692 77.156 33.199 76.2891 33.4246 75.4L36.7 75.4C37.2523 75.4 37.7 75.8477 37.7 76.4V77C37.7 77.5523 37.2523 78 36.7 78H32.7354ZM28.5665 89.7C28.9516 88.884 29.3306 88.0168 29.7029 87.1H39.3C39.8523 87.1 40.3 87.5477 40.3 88.1V88.7C40.3 89.2523 39.8523 89.7 39.3 89.7H28.5665ZM20.1877 98.7503C21.6225 98.5426 23.0462 97.686 24.4365 96.2H28.9C29.4523 96.2 29.9 96.6477 29.9 97.2V97.8C29.9 98.3523 29.4523 98.8 28.9 98.8H20.5C20.3909 98.8 20.2859 98.7825 20.1877 98.7503Z" fill="black"/>
<path fill-rule="evenodd" clip-rule="evenodd" d="M35.1783 67.6H43.2C43.7523 67.6 44.2 67.1523 44.2 66.6V66C44.2 65.4477 43.7523 65 43.2 65L35.6772 65C35.5147 65.8797 35.3484 66.7465 35.1783 67.6Z" fill="black"/>
</svg>
