<svg width="505" height="102" viewBox="0 0 505 102" fill="black" xmlns="http://www.w3.org/2000/svg">
<path fill-rule="evenodd" clip-rule="evenodd" d="M44.832 60.7031H41.7852V0H44.832V60.7031ZM11.082 60.7031H8.03516V0H11.082V60.7031ZM4.98828 60.7031H1.94141V0H4.98828V60.7031ZM22.332 60.7031H14.1289V0H22.332V60.7031ZM38.7383 60.7031H30.5352V0H38.7383V60.7031ZM90.8281 60.7031H82.625V0H90.8281V60.7031ZM56.1406 60.7031H47.9375V0H56.1406V60.7031ZM67.3906 60.7031H64.3438V0H67.3906V60.7031ZM73.4844 60.7031H70.4375V0H73.4844V60.7031ZM79.5781 60.7031H76.5312V0H79.5781V60.7031ZM136.766 60.7031H128.562V0H136.766V60.7031ZM125.516 60.7031H122.469V0H125.516V60.7031ZM108.172 60.7031H105.125V0H108.172V60.7031ZM114.266 60.7031H111.219V0H114.266V60.7031ZM102.078 60.7031H93.875V0H102.078V60.7031ZM166.297 60.7031H163.25V0H166.297V60.7031ZM148.953 60.7031H145.906V0H148.953V60.7031ZM142.859 60.7031H139.812V0H142.859V60.7031ZM182.703 60.7031H174.5V0H182.703V60.7031ZM160.203 60.7031H152V0H160.203V60.7031ZM222.547 60.7031H219.5V0H222.547V60.7031ZM193.953 60.7031H185.75V0H193.953V60.7031ZM211.297 60.7031H208.25V0H211.297V60.7031ZM205.203 60.7031H197V0H205.203V60.7031ZM228.641 60.7031H225.594V0H228.641V60.7031ZM257.234 60.7031H249.031V0H257.234V60.7031ZM274.578 60.7031H271.531V0H274.578V60.7031ZM245.984 60.7031H242.938V0H245.984V60.7031ZM268.484 60.7031H265.438V0H268.484V60.7031ZM239.891 60.7031H231.688V0H239.891V60.7031ZM309.266 60.7031H301.062V0H309.266V60.7031ZM320.516 60.7031H317.469V0H320.516V60.7031ZM291.922 60.7031H288.875V0H291.922V60.7031ZM298.016 60.7031H294.969V0H298.016V60.7031ZM285.828 60.7031H277.625V0H285.828V60.7031ZM355.203 60.7031H352.156V0H355.203V60.7031ZM332.703 60.7031H329.656V0H332.703V60.7031ZM326.609 60.7031H323.562V0H326.609V60.7031ZM343.953 60.7031H335.75V0H343.953V60.7031ZM366.453 60.7031H358.25V0H366.453V60.7031ZM395.047 60.7031H386.844V0H395.047V60.7031ZM412.391 60.7031H409.344V0H412.391V60.7031ZM383.797 60.7031H380.75V0H383.797V60.7031ZM406.297 60.7031H403.25V0H406.297V60.7031ZM377.703 60.7031H369.5V0H377.703V60.7031ZM441.922 60.7031H438.875V0H441.922V60.7031ZM424.578 60.7031H421.531V0H424.578V60.7031ZM418.484 60.7031H415.438V0H418.484V60.7031ZM458.328 60.7031H450.125V0H458.328V60.7031ZM435.828 60.7031H427.625V0H435.828V60.7031ZM493.016 60.7031H489.969V0H493.016V60.7031ZM475.672 60.7031H472.625V0H475.672V60.7031ZM469.578 60.7031H461.375V0H469.578V60.7031ZM504.266 60.7031H501.219V0H504.266V60.7031ZM486.922 60.7031H478.719V0H486.922V60.7031ZM4.38281 74.6875H7.78125V95.9961C7.78125 100.117 5.82812 101.992 1.49219 101.992C1.43359 101.992 0.886719 101.992 0.847656 101.973V99.1406H1.375C3.58203 99.1406 4.38281 98.3008 4.38281 96.0352V74.6875ZM8.19141 68.9453C8.19141 70.1172 7.25391 71.0742 6.0625 71.0742C4.89062 71.0742 3.93359 70.1172 3.93359 68.9453C3.93359 67.7539 4.89062 66.8164 6.0625 66.8164C7.25391 66.8164 8.19141 67.7539 8.19141 68.9453ZM54.8523 74.6875H58.2508V95H55.0281V91.6992H54.95C53.7391 94.043 51.6297 95.3516 48.5047 95.3516C44.0711 95.3516 41.4734 92.4805 41.4734 87.8711V74.6875H44.8719V87.2656C44.8719 90.5664 46.4148 92.3438 49.5594 92.3438C52.8602 92.3438 54.8523 90.0781 54.8523 86.6211V74.6875ZM94.5016 89.2578C94.5016 91.1914 96.1227 92.4609 98.5641 92.4609C101.767 92.4609 104.228 90.2148 104.228 87.2852V85.625L98.7984 85.957C96.0641 86.1328 94.5016 87.3438 94.5016 89.2578ZM104.326 91.5039C103.115 93.8281 100.537 95.3516 97.8023 95.3516C93.7594 95.3516 91.0445 92.9102 91.0445 89.2578C91.0445 85.7812 93.7203 83.5938 98.4078 83.3203L104.228 82.9883V81.2891C104.228 78.8086 102.588 77.3242 99.775 77.3242C97.1578 77.3242 95.5172 78.5547 95.0875 80.5469H91.8063C92.0406 77.0312 95.0484 74.3359 99.8531 74.3359C104.619 74.3359 107.627 76.9141 107.627 80.957V95H104.404V91.5039H104.326ZM144.541 95H141.143V74.6875H144.346V77.9297H144.424C145.557 75.7422 147.725 74.3359 150.87 74.3359C155.323 74.3359 157.901 77.207 157.901 81.8164V95H154.502V82.4219C154.502 79.1406 152.959 77.3438 149.834 77.3438C146.631 77.3438 144.541 79.6094 144.541 83.0469V95ZM199.777 74.3359C204.855 74.3359 207.882 77.6953 208.312 81.3477H204.991C204.503 79.1406 202.784 77.3242 199.796 77.3242C196.28 77.3242 193.898 80.2344 193.898 84.8438C193.898 89.5703 196.32 92.3633 199.835 92.3633C202.609 92.3633 204.425 90.8984 205.011 88.457H208.351C207.823 92.5 204.425 95.3516 199.816 95.3516C194.191 95.3516 190.441 91.3867 190.441 84.8438C190.441 78.4375 194.171 74.3359 199.777 74.3359ZM254.23 83.1055C254.152 79.707 252.023 77.2852 248.82 77.2852C245.637 77.2852 243.41 79.7266 243.195 83.1055H254.23ZM249.113 92.4023C251.691 92.4023 253.586 91.0938 254.152 89.1797H257.492C256.906 92.7344 253.469 95.3516 249.035 95.3516C243.215 95.3516 239.68 91.3086 239.68 84.9219C239.68 78.6133 243.273 74.3359 248.879 74.3359C254.367 74.3359 257.746 78.3203 257.746 84.4727V85.7617H243.176V85.957C243.176 89.8438 245.461 92.4023 249.113 92.4023ZM293.782 95H290.384V74.6875H293.587V78.0078H293.665C294.329 75.7617 296.204 74.3359 298.587 74.3359C299.075 74.3359 299.509 74.4038 299.798 74.449C299.856 74.458 299.908 74.4661 299.954 74.4727V77.7734C299.68 77.6758 298.958 77.5781 298.138 77.5781C295.501 77.5781 293.782 79.4727 293.782 82.3438V95ZM345.209 91.5625C343.9 93.9062 341.576 95.3516 338.646 95.3516C333.47 95.3516 329.955 91.2109 329.955 84.8438C329.955 78.4766 333.451 74.3359 338.568 74.3359C341.478 74.3359 343.822 75.7617 345.033 77.9883H345.111V66.8164H348.509V95H345.267V91.5625H345.209ZM345.13 84.8438C345.13 80.3125 342.787 77.3242 339.291 77.3242C335.697 77.3242 333.431 80.2539 333.431 84.8438C333.431 89.4531 335.697 92.3633 339.291 92.3633C342.787 92.3633 345.13 89.3945 345.13 84.8438ZM395.854 83.1055C395.776 79.707 393.647 77.2852 390.444 77.2852C387.26 77.2852 385.034 79.7266 384.819 83.1055H395.854ZM390.737 92.4023C393.315 92.4023 395.209 91.0938 395.776 89.1797H399.116C398.53 92.7344 395.092 95.3516 390.659 95.3516C384.838 95.3516 381.303 91.3086 381.303 84.9219C381.303 78.6133 384.897 74.3359 390.502 74.3359C395.991 74.3359 399.37 78.3203 399.37 84.4727V85.7617H384.799V85.957C384.799 89.8438 387.084 92.4023 390.737 92.4023ZM435.405 95H432.007V74.6875H435.21V77.9297H435.288C436.421 75.7422 438.589 74.3359 441.734 74.3359C446.187 74.3359 448.765 77.207 448.765 81.8164V95H445.366V82.4219C445.366 79.1406 443.823 77.3438 440.698 77.3438C437.495 77.3438 435.405 79.6094 435.405 83.0469V95ZM446.538 66.6797C446.538 69.707 445.073 71.543 442.632 71.543C441.026 71.543 440.161 70.6193 439.447 69.8573C438.946 69.3224 438.52 68.8672 437.964 68.8672C437.105 68.8672 436.519 69.5508 436.519 71.3867H434.234C434.234 68.3398 435.698 66.5234 438.12 66.5234C439.727 66.5234 440.542 67.4336 441.222 68.1923C441.708 68.7344 442.124 69.1992 442.71 69.1992C443.648 69.1992 444.253 68.457 444.253 66.6797H446.538ZM500.113 84.8438C500.113 91.3086 496.324 95.3516 490.719 95.3516C485.094 95.3516 481.305 91.3086 481.305 84.8438C481.305 78.3594 485.094 74.3359 490.719 74.3359C496.324 74.3359 500.113 78.3594 500.113 84.8438ZM484.762 84.8438C484.762 89.6289 487.125 92.3633 490.719 92.3633C494.312 92.3633 496.656 89.6289 496.656 84.8438C496.656 80.0586 494.312 77.3242 490.719 77.3242C487.125 77.3242 484.762 80.0586 484.762 84.8438Z" fill="black"/>
</svg>
