<svg width="481" height="115" viewBox="0 0 481 115" fill="none" xmlns="http://www.w3.org/2000/svg">
<path d="M40.25 22.1875C39.7083 22.3125 39.3333 22.6042 39.125 23.0625C38.9583 23.4792 38.8333 23.9375 38.75 24.4375C38.7083 24.9375 38.6667 25.4375 38.625 25.9375C38.625 26.4375 38.5417 26.8333 38.375 27.125C38.2083 27.4167 37.9167 27.5625 37.5 27.5625C37.125 27.5625 36.5417 27.2917 35.75 26.75C35.1667 26.625 34.75 26.3958 34.5 26.0625C34.25 25.6875 34.0625 25.2917 33.9375 24.875C33.8125 24.4167 33.7083 23.9583 33.625 23.5C33.5417 23 33.3958 22.5625 33.1875 22.1875L36.75 18.0625C37.2917 18.2708 37.7292 18.5208 38.0625 18.8125C38.3958 19.1042 38.6667 19.4375 38.875 19.8125C39.0833 20.1875 39.2917 20.5833 39.5 21C39.7083 21.375 39.9583 21.7708 40.25 22.1875ZM59.6875 52C58.5625 53.0833 57.5 54.125 56.5 55.125C55.5417 56.125 54.5625 57.1042 53.5625 58.0625C52.5625 58.9792 51.5208 59.875 50.4375 60.75C49.3958 61.625 48.2292 62.4583 46.9375 63.25C46.3125 63.6667 45.6875 64.0417 45.0625 64.375C44.4375 64.7083 43.7708 65.0208 43.0625 65.3125C42.8542 65.3958 42.6458 65.4792 42.4375 65.5625C42.2292 65.6458 42.0208 65.7292 41.8125 65.8125C41.5625 65.9375 41.1458 66.2083 40.5625 66.625C39.9792 67.0833 39.5208 67.4167 39.1875 67.625C38.2708 68.2083 37.3125 68.8333 36.3125 69.5C35.3542 70.2083 34.4792 70.9792 33.6875 71.8125C32.8958 72.6458 32.2708 73.5625 31.8125 74.5625C31.3125 75.6042 31.1042 76.75 31.1875 78C30.4792 78.375 29.9583 78.875 29.625 79.5C29.2917 80.1667 29.0625 80.875 28.9375 81.625C28.8125 82.375 28.7292 83.125 28.6875 83.875C28.6042 84.6667 28.5 85.3958 28.375 86.0625C28.2917 86.4792 28.1875 86.8333 28.0625 87.125C27.9375 87.4167 27.7917 87.75 27.625 88.125C27.5417 88.25 27.5 88.3542 27.5 88.4375C27.5 88.5208 27.4792 88.6042 27.4375 88.6875C27.1458 89.2292 26.875 89.6875 26.625 90.0625C26.375 90.4792 26.3542 91.0208 26.5625 91.6875C26.0625 91.7708 25.7708 91.9583 25.6875 92.25C25.5625 92.5833 25.5208 92.9583 25.5625 93.375C25.5625 93.7917 25.5625 94.2083 25.5625 94.625C25.5625 95.0833 25.4167 95.4375 25.125 95.6875C24.75 95.6875 24.4792 95.7708 24.3125 95.9375C24.1042 96.1458 23.9375 96.375 23.8125 96.625C23.6875 96.9167 23.5833 97.2083 23.5 97.5C23.375 97.7917 23.2292 98.0417 23.0625 98.25C22.9375 99.3333 22.6458 100.312 22.1875 101.188C21.6875 102.104 21.1667 103 20.625 103.875C20.0417 104.75 19.5 105.625 19 106.5C18.5 107.417 18.1667 108.396 18 109.438C17.625 109.979 17.25 110.542 16.875 111.125C16.4583 111.708 16.0208 112.208 15.5625 112.625C15.0625 113.083 14.5208 113.438 13.9375 113.688C13.3542 113.979 12.6667 114.083 11.875 114C10.6667 113.875 9.52083 113.458 8.4375 112.75C7.35417 112.083 6.35417 111.25 5.4375 110.25C4.52083 109.25 3.70833 108.167 3 107C2.29167 105.875 1.70833 104.812 1.25 103.812C1.54167 103.521 1.70833 103.208 1.75 102.875C1.75 102.542 1.6875 102.188 1.5625 101.812C1.4375 101.479 1.29167 101.146 1.125 100.812C0.916667 100.479 0.791667 100.146 0.75 99.8125C1.45833 98.7708 1.89583 97.625 2.0625 96.375C2.1875 95.125 2.41667 93.8958 2.75 92.6875C3.58333 92.1042 4.27083 91.2917 4.8125 90.25C5.35417 89.2083 5.5 88.1667 5.25 87.125C5.875 86.2917 6.64583 85.5 7.5625 84.75C8.4375 84 9.33333 83.25 10.25 82.5C11.125 81.75 11.9583 80.9583 12.75 80.125C13.5 79.3333 14.0625 78.4583 14.4375 77.5C15.1458 77.5833 15.7083 77.4583 16.125 77.125C16.5417 76.8333 16.9375 76.5 17.3125 76.125C17.6875 75.75 18.0833 75.375 18.5 75C18.875 74.6667 19.375 74.4583 20 74.375C20.2083 74 20.4792 73.6042 20.8125 73.1875C21.1458 72.8125 21.5208 72.5 21.9375 72.25C22.3542 72 22.7917 71.875 23.25 71.875C23.6667 71.875 24.1042 72.0625 24.5625 72.4375C25.1042 72.5625 25.5417 72.4375 25.875 72.0625C26.1667 71.7292 26.4375 71.3542 26.6875 70.9375C26.9375 70.5625 27.2083 70.2708 27.5 70.0625C27.75 69.8542 28.125 69.9583 28.625 70.375C29 70.125 29.25 69.8125 29.375 69.4375C29.4583 69.0625 29.375 68.6875 29.125 68.3125C30.0833 65.6875 30.9583 63.0625 31.75 60.4375C32.5 57.8542 33.2708 55.2292 34.0625 52.5625L35.625 47.25C35.7083 46.9167 35.7917 46.5625 35.875 46.1875C36 45.7708 36.125 45.375 36.25 45C36.375 44.6667 36.5208 44.3333 36.6875 44C36.8958 43.6667 37.1042 43.3333 37.3125 43C37.6458 42.4583 38 41.9583 38.375 41.5C38.75 41.0417 39.1458 40.7292 39.5625 40.5625C40.0208 40.3542 40.4792 40.3542 40.9375 40.5625C41.3958 40.7292 41.8542 41.1875 42.3125 41.9375C42.1458 42.9375 41.9583 44 41.75 45.125C41.5833 46.2083 41.3542 47.2917 41.0625 48.375C40.7708 49.4583 40.3958 50.5 39.9375 51.5C39.5208 52.4583 38.9792 53.3333 38.3125 54.125C38.6458 54.9167 38.7708 55.6458 38.6875 56.3125C38.6042 56.9792 38.4583 57.625 38.25 58.25C38.0417 58.875 37.8125 59.5 37.5625 60.125C37.3125 60.7917 37.2083 61.5 37.25 62.25C37.0417 62.4583 36.7917 62.6667 36.5 62.875C36.25 63.125 36.1667 63.4167 36.25 63.75C36.625 64.0833 37.25 64.0625 38.125 63.6875C39 63.3125 39.9375 62.8125 40.9375 62.1875C41.9375 61.6042 42.8958 61 43.8125 60.375C44.7708 59.7917 45.4792 59.4583 45.9375 59.375C45.8125 59.25 45.6667 59.1042 45.5 58.9375C45.375 58.7708 45.3542 58.5625 45.4375 58.3125C46.4792 57.7708 47.3542 57.375 48.0625 57.125C48.8125 56.875 49.5208 56.6458 50.1875 56.4375C50.8542 56.1875 51.5208 55.8542 52.1875 55.4375C52.8958 55.0208 53.7083 54.375 54.625 53.5C55.25 52.8333 56.0208 52.3958 56.9375 52.1875C57.8542 51.9375 58.7708 51.875 59.6875 52ZM27.9375 75.4375C27.0625 75.3125 26.3333 75.4167 25.75 75.75C25.1667 76.0833 24.6458 76.5 24.1875 77C23.7292 77.5 23.2917 78 22.875 78.5C22.4167 79 21.8958 79.3333 21.3125 79.5C21.0208 79.5833 20.7083 79.6042 20.375 79.5625C20 79.5208 19.6667 79.4792 19.375 79.4375C19.0417 79.4375 18.75 79.5 18.5 79.625C18.2083 79.7917 17.9792 80.1042 17.8125 80.5625C17.1875 80.9375 16.6667 81.3958 16.25 81.9375C15.8333 82.4792 15.4375 83.0208 15.0625 83.5625C14.6458 84.1042 14.1875 84.6042 13.6875 85.0625C13.1875 85.5208 12.5417 85.875 11.75 86.125C11.125 87.4583 10.4167 88.7292 9.625 89.9375C8.79167 91.1458 8.02083 92.3542 7.3125 93.5625C6.60417 94.8125 6.04167 96.1042 5.625 97.4375C5.16667 98.7708 5 100.25 5.125 101.875C5.58333 102.333 6.02083 102.833 6.4375 103.375C6.85417 103.958 7.29167 104.5 7.75 105C8.16667 105.542 8.64583 106.021 9.1875 106.438C9.6875 106.854 10.2708 107.146 10.9375 107.312C11.0625 107.354 11.2917 107.396 11.625 107.438C11.9167 107.479 12.125 107.479 12.25 107.438C12.7917 107.354 13.2292 107.104 13.5625 106.688C13.8958 106.312 14.1875 105.854 14.4375 105.312C14.6875 104.771 14.9167 104.229 15.125 103.688C15.2917 103.146 15.5 102.688 15.75 102.312C16.5 101.854 17.0833 101.333 17.5 100.75C17.9167 100.167 18.2708 99.5417 18.5625 98.875C18.8542 98.2083 19.125 97.5208 19.375 96.8125C19.5833 96.1042 19.8958 95.4167 20.3125 94.75L19.875 94.25L21.3125 92.6875C20.7292 91.9792 20.5208 91.4167 20.6875 91C20.8542 90.625 21.1458 90.25 21.5625 89.875C21.9792 89.5417 22.375 89.1667 22.75 88.75C23.0833 88.375 23.125 87.8333 22.875 87.125C23.4583 87 23.8542 86.7917 24.0625 86.5C24.2292 86.2083 24.3125 85.8542 24.3125 85.4375C24.2708 85.0625 24.1875 84.6667 24.0625 84.25C23.9375 83.8333 23.875 83.4167 23.875 83C23.875 82.5833 23.9792 82.1875 24.1875 81.8125C24.3958 81.4792 24.8125 81.2083 25.4375 81C25.1042 80.3333 25.0417 79.7292 25.25 79.1875C25.4167 78.6875 25.6875 78.2292 26.0625 77.8125C26.4375 77.3958 26.8333 77 27.25 76.625C27.625 76.25 27.8542 75.8542 27.9375 75.4375ZM97 56.875C96.5 56.875 96.1042 56.8958 95.8125 56.9375C95.5625 56.9375 95.3333 56.9583 95.125 57C94.9167 57.0417 94.6875 57.125 94.4375 57.25C94.1875 57.375 93.8542 57.5625 93.4375 57.8125C93.2708 58.2708 93.0417 58.625 92.75 58.875C92.5 59.0833 92.1875 59.2708 91.8125 59.4375C91.4792 59.5625 91.125 59.7083 90.75 59.875C90.375 60 90.0208 60.2292 89.6875 60.5625C86.5208 61.0625 83.7292 60.3542 81.3125 58.4375C81.0208 58.2292 80.75 58 80.5 57.75C80.2917 57.5 80.0417 57.2708 79.75 57.0625C79.5417 56.8958 79.4167 56.8333 79.375 56.875C79.375 56.875 79.2917 56.7708 79.125 56.5625C78.8333 56.1458 78.6458 55.6458 78.5625 55.0625C78.5208 54.4375 78.4375 53.8542 78.3125 53.3125C78.1875 52.7292 77.9375 52.25 77.5625 51.875C77.2292 51.4583 76.625 51.2708 75.75 51.3125C75.3333 52.1875 74.7292 53.0833 73.9375 54C73.1875 54.875 72.3333 55.6667 71.375 56.375C70.4167 57.0833 69.3958 57.6667 68.3125 58.125C67.2708 58.5833 66.2708 58.8125 65.3125 58.8125C64.9792 59.7708 64.3958 60.4792 63.5625 60.9375C62.7708 61.4375 61.9167 61.8125 61 62.0625C60.9167 62.1042 60.75 62.1458 60.5 62.1875C60.25 62.2708 60.1042 62.3125 60.0625 62.3125C59.4792 62.3542 59.0208 62.25 58.6875 62C58.3542 61.75 58.0417 61.4792 57.75 61.1875C57.4583 60.8958 57.1458 60.625 56.8125 60.375C56.4792 60.125 56.0208 60 55.4375 60C54.9792 58.9167 54.5208 57.8542 54.0625 56.8125C53.6042 55.7708 53.2708 54.7083 53.0625 53.625C53.4375 53.4167 53.6458 53.1667 53.6875 52.875C53.6875 52.5417 53.6875 52.2083 53.6875 51.875C53.0208 51.6667 52.6875 51.4167 52.6875 51.125C52.6458 50.7917 52.7083 50.4583 52.875 50.125C53 49.7917 53.1458 49.4792 53.3125 49.1875C53.4375 48.8542 53.3542 48.5833 53.0625 48.375C53.3958 45.8333 54.125 43.375 55.25 41C56.375 38.625 57.9792 36.6458 60.0625 35.0625C59.8125 34.2708 59.875 33.6667 60.25 33.25C60.6667 32.8333 61.1458 32.6042 61.6875 32.5625C62.2708 32.5208 62.8125 32.6667 63.3125 33C63.8542 33.2917 64.125 33.7708 64.125 34.4375C64.1667 34.7292 64.1458 35.0208 64.0625 35.3125C63.9792 35.6042 63.8958 35.875 63.8125 36.125C63.5625 37.375 63.1875 38.5833 62.6875 39.75C62.1875 40.9167 61.6458 42.0625 61.0625 43.1875C60.4792 44.3125 59.875 45.4375 59.25 46.5625C58.6667 47.6875 58.1667 48.8542 57.75 50.0625C57.25 50.3958 57.0833 50.75 57.25 51.125C57.4167 51.5 57.625 51.875 57.875 52.25C58.1667 52.5833 58.3125 52.9167 58.3125 53.25C58.3542 53.5833 57.9792 53.8958 57.1875 54.1875C56.9375 54.7708 57 55.2917 57.375 55.75C57.75 56.1667 58.0625 56.6042 58.3125 57.0625C58.6458 57.1042 58.9583 57.1042 59.25 57.0625C59.5833 57.0208 59.8542 56.8333 60.0625 56.5C60.5625 56.8333 61 56.8958 61.375 56.6875C61.7917 56.4792 62.2083 56.2292 62.625 55.9375C63.0833 55.6042 63.5625 55.3333 64.0625 55.125C64.6042 54.9167 65.2083 54.9792 65.875 55.3125C66.1667 55.0208 66.3958 54.6667 66.5625 54.25C66.7708 53.8333 66.9792 53.4375 67.1875 53.0625C67.3958 52.6875 67.6458 52.375 67.9375 52.125C68.2708 51.875 68.7292 51.7917 69.3125 51.875C69.8958 50.8333 70.6667 49.9792 71.625 49.3125C72.5833 48.6042 73.5417 47.9375 74.5 47.3125C75.5 46.6875 76.375 46.0208 77.125 45.3125C77.9167 44.6042 78.4167 43.6875 78.625 42.5625C79.4167 41.3125 80.2083 39.9167 81 38.375C81.8333 36.7917 82.7917 35.4792 83.875 34.4375C84 34.1042 84.2083 33.8542 84.5 33.6875C84.7917 33.4792 85.1042 33.3542 85.4375 33.3125C85.7708 33.2292 86.1042 33.25 86.4375 33.375C86.7708 33.4583 87.0625 33.625 87.3125 33.875C87.3958 34.625 87.2917 35.3125 87 35.9375C86.75 36.5625 86.4583 37.1875 86.125 37.8125C85.8333 38.3958 85.6042 39.0208 85.4375 39.6875C85.2708 40.3542 85.3333 41.125 85.625 42C85.0417 42.3333 84.4583 42.625 83.875 42.875C83.3333 43.125 82.8125 43.3958 82.3125 43.6875C81.8542 43.9792 81.4375 44.3542 81.0625 44.8125C80.7292 45.2708 80.5 45.875 80.375 46.625C81.5 47.0417 82.1667 47.5625 82.375 48.1875C82.5833 48.8125 82.6875 49.5 82.6875 50.25C82.6875 50.9583 82.7292 51.7083 82.8125 52.5C82.9375 53.25 83.4792 54 84.4375 54.75C84.6042 54.875 84.7083 54.9792 84.75 55.0625C84.8333 55.1042 84.9792 55.1667 85.1875 55.25C85.6042 55.375 85.9792 55.375 86.3125 55.25C86.6458 55.0833 86.9583 54.9375 87.25 54.8125C87.5833 54.6875 87.9167 54.6458 88.25 54.6875C88.625 54.6875 89.0417 54.9375 89.5 55.4375C90.125 54.6458 90.7083 54.6458 91.25 55.4375C91.75 54.5208 92.2083 54 92.625 53.875C93.0417 53.75 93.4375 53.7083 93.8125 53.75C94.2292 53.7917 94.6458 53.75 95.0625 53.625C95.4792 53.5 95.9375 52.9792 96.4375 52.0625L97 52.625C97.25 51.9583 97.5417 51.6458 97.875 51.6875C98.25 51.6875 98.6042 51.75 98.9375 51.875C99.2708 51.9583 99.5625 51.9583 99.8125 51.875C100.062 51.75 100.188 51.25 100.188 50.375C100.562 50.375 100.875 50.2917 101.125 50.125C101.417 49.9583 101.688 49.7708 101.938 49.5625C102.229 49.3542 102.542 49.1875 102.875 49.0625C103.208 48.8958 103.604 48.8125 104.062 48.8125L102.438 52.75L97 56.875ZM143 53.4375C142.417 54.4375 141.958 55.25 141.625 55.875C141.333 56.4583 141.021 56.9583 140.688 57.375C140.396 57.75 140.042 58.1042 139.625 58.4375C139.25 58.7292 138.708 59.1042 138 59.5625C137.542 59.9792 137.083 60.3333 136.625 60.625C136.25 60.9167 135.875 61.1667 135.5 61.375C135.167 61.5833 134.896 61.6875 134.688 61.6875C134.604 61.6875 134.521 61.6667 134.438 61.625C134.354 61.625 134.271 61.625 134.188 61.625C133.938 61.625 133.688 61.625 133.438 61.625C133.229 61.6667 133.042 61.5208 132.875 61.1875C132.75 61.3125 132.646 61.4583 132.562 61.625C132.479 61.7917 132.396 61.9375 132.312 62.0625C132.229 62.2292 132.104 62.3542 131.938 62.4375C131.812 62.5208 131.625 62.5208 131.375 62.4375L131.062 62.0625L130.125 62.875C128.958 62.2917 127.833 61.7917 126.75 61.375C125.708 61 124.771 60.5417 123.938 60C123.104 59.4583 122.396 58.7708 121.812 57.9375C121.229 57.0625 120.812 55.875 120.562 54.375C120.354 54.125 120.125 53.9167 119.875 53.75C119.625 53.5417 119.333 53.4792 119 53.5625C118.583 54.2708 118.083 54.875 117.5 55.375C116.917 55.875 116.333 56.4167 115.75 57C115.542 57.2083 115.375 57.4375 115.25 57.6875C115.125 57.9375 114.958 58.1667 114.75 58.375C114.417 58.75 114.021 59.0208 113.562 59.1875C113.104 59.3125 112.646 59.4375 112.188 59.5625C111.729 59.6875 111.292 59.8958 110.875 60.1875C110.5 60.4792 110.229 60.9792 110.062 61.6875C109.562 61.3958 109.062 61.3125 108.562 61.4375C108.188 61.5208 107.792 61.6042 107.375 61.6875C106.958 61.8125 106.542 61.875 106.125 61.875C105.75 61.9167 105.375 61.875 105 61.75C104.625 61.625 104.292 61.3542 104 60.9375C103.417 61.1875 102.875 61.1667 102.375 60.875C101.875 60.625 101.396 60.2708 100.938 59.8125C100.521 59.3125 100.104 58.7917 99.6875 58.25C99.2708 57.7083 98.875 57.3125 98.5 57.0625C98.25 56.3958 98.2708 55.8333 98.5625 55.375C98.8125 54.875 99.1042 54.4167 99.4375 54C99.7292 53.5417 99.9375 53.1042 100.062 52.6875C100.188 52.2292 100 51.6875 99.5 51.0625C99.9167 50.4375 100.292 49.7917 100.625 49.125C100.958 48.4167 101.292 47.7292 101.625 47.0625C102 46.3542 102.375 45.6875 102.75 45.0625C103.167 44.3958 103.667 43.8333 104.25 43.375C104 43.0833 103.875 42.8125 103.875 42.5625C103.875 42.2708 103.938 42 104.062 41.75C104.188 41.4583 104.333 41.1875 104.5 40.9375C104.667 40.6458 104.792 40.375 104.875 40.125L106.688 39.25L106.25 37.75C106.708 37.8333 107.042 37.8125 107.25 37.6875C107.5 37.5625 107.667 37.375 107.75 37.125C107.875 36.875 107.958 36.6042 108 36.3125C108.083 35.9792 108.188 35.6875 108.312 35.4375C108.521 35.0625 108.833 34.7917 109.25 34.625C110.125 33.9583 110.979 33.25 111.812 32.5C112.688 31.75 113.542 31.0208 114.375 30.3125C115.25 29.6042 116.146 28.9375 117.062 28.3125C117.979 27.6458 118.979 27.0833 120.062 26.625C120.812 26.75 121.396 26.9792 121.812 27.3125C122.271 27.6458 122.604 28.0417 122.812 28.5C123.062 28.9583 123.25 29.4792 123.375 30.0625C123.5 30.6042 123.625 31.1458 123.75 31.6875C123.958 32.3958 124.208 33 124.5 33.5C124.792 34 125.292 34.4167 126 34.75C125.417 35.75 125.188 36.75 125.312 37.75C125.438 38.7083 125.562 39.7292 125.688 40.8125C125.812 41.8125 125.792 42.7917 125.625 43.75C125.5 44.7083 124.896 45.5625 123.812 46.3125C123.729 46.6042 123.708 46.9167 123.75 47.25C123.792 47.5833 123.812 47.9167 123.812 48.25C123.812 48.5833 123.75 48.8958 123.625 49.1875C123.5 49.4792 123.271 49.7083 122.938 49.875C123.312 50.3333 123.5 50.7917 123.5 51.25C123.542 51.7083 123.562 52.1458 123.562 52.5625C123.604 52.9792 123.708 53.3542 123.875 53.6875C124.083 54.0208 124.542 54.2708 125.25 54.4375C125.375 54.9792 125.479 55.3958 125.562 55.6875C125.688 55.9375 125.812 56.1458 125.938 56.3125C126.104 56.4792 126.312 56.6458 126.562 56.8125C126.812 56.9375 127.146 57.1458 127.562 57.4375C127.896 57.5208 128.271 57.5208 128.688 57.4375C129.104 57.3542 129.438 57.4792 129.688 57.8125C129.896 57.6042 130.146 57.5 130.438 57.5C130.729 57.4583 131 57.4583 131.25 57.5L132.062 58.875C132.521 58.5417 133.042 58.25 133.625 58C134.208 57.75 134.771 57.5417 135.312 57.375C135.938 57.2083 136.562 57.0625 137.188 56.9375L143 53.4375ZM119 32.0625C118.625 32.3958 118.167 32.7292 117.625 33.0625C117.083 33.3958 116.542 33.75 116 34.125C115.5 34.5 115.062 34.9167 114.688 35.375C114.312 35.7917 114.083 36.2917 114 36.875C113.042 37.0417 112.375 37.4375 112 38.0625C111.625 38.6875 111.312 39.375 111.062 40.125C110.812 40.875 110.542 41.625 110.25 42.375C109.958 43.0833 109.438 43.6458 108.688 44.0625C108.438 44.2292 108.208 44.3125 108 44.3125C108.042 44.3125 107.917 44.3958 107.625 44.5625C107.167 44.8958 106.771 45.3125 106.438 45.8125C106.104 46.3125 105.812 46.8542 105.562 47.4375C105.354 48.0208 105.146 48.625 104.938 49.25C104.771 49.8333 104.604 50.375 104.438 50.875C103.854 50.9583 103.417 51.0833 103.125 51.25C102.833 51.4167 102.646 51.6042 102.562 51.8125C102.521 51.9792 102.542 52.1875 102.625 52.4375C102.708 52.6875 102.833 52.9583 103 53.25C103.167 53.5 103.333 53.7917 103.5 54.125C103.708 54.4583 103.875 54.7917 104 55.125C104.125 55.4583 104.188 55.7917 104.188 56.125C104.229 56.4583 104.146 56.7708 103.938 57.0625C104.521 57.5208 105.083 57.625 105.625 57.375C106.167 57.0833 106.667 56.7708 107.125 56.4375C107.292 56.3125 107.458 56.1875 107.625 56.0625C107.833 55.8958 108.042 55.7708 108.25 55.6875C109.208 55.8958 110.083 55.8333 110.875 55.5C111.667 55.1667 112.396 54.7083 113.062 54.125C113.729 53.5417 114.375 52.9167 115 52.25C115.625 51.5833 116.25 51 116.875 50.5L116.375 50C117.125 49.7917 117.646 49.5208 117.938 49.1875C118.271 48.8125 118.479 48.3958 118.562 47.9375C118.646 47.4792 118.646 47 118.562 46.5C118.479 45.9583 118.417 45.3958 118.375 44.8125C118.333 44.4792 118.312 44.1667 118.312 43.875C118.354 43.5417 118.438 43.2083 118.562 42.875C118.229 41.9167 118.167 41 118.375 40.125C118.625 39.25 118.938 38.4167 119.312 37.625C119.729 36.7917 120.125 35.9583 120.5 35.125C120.875 34.2917 121.062 33.4167 121.062 32.5L119 32.0625ZM174.75 57.75C174.792 58.25 174.708 58.625 174.5 58.875C174.292 59.125 174 59.3125 173.625 59.4375C173.292 59.5625 172.917 59.6667 172.5 59.75C172.083 59.7917 171.729 59.8958 171.438 60.0625C170.229 59.9375 169.062 59.7708 167.938 59.5625C166.812 59.3125 165.771 58.9583 164.812 58.5C163.854 58 162.979 57.3542 162.188 56.5625C161.438 55.7708 160.792 54.7708 160.25 53.5625C160.792 52.6875 160.979 51.7292 160.812 50.6875C160.646 49.6042 160.479 48.5625 160.312 47.5625C160.188 46.5625 160.208 45.6458 160.375 44.8125C160.583 43.9792 161.312 43.3125 162.562 42.8125C162.479 42.3542 162.479 41.8542 162.562 41.3125C162.688 40.7708 162.542 40.3125 162.125 39.9375C160.667 40.4375 159.396 41.1458 158.312 42.0625C157.229 42.9792 156.188 43.9792 155.188 45.0625C154.229 46.1458 153.25 47.25 152.25 48.375C151.292 49.4583 150.229 50.4167 149.062 51.25C148.521 51.2917 147.938 51.2708 147.312 51.1875C146.729 51.0625 146.229 51.2292 145.812 51.6875C145.854 51.9792 145.958 52.2292 146.125 52.4375C146.292 52.6458 146.417 52.8542 146.5 53.0625C146.625 53.2708 146.688 53.5 146.688 53.75C146.688 53.9583 146.542 54.2083 146.25 54.5C145.833 54.9167 145.375 55.2708 144.875 55.5625C144.417 55.8125 143.958 56.1042 143.5 56.4375C143.083 56.7292 142.729 57.0833 142.438 57.5C142.146 57.9167 142 58.4792 142 59.1875C141.75 59.0625 141.521 59.0417 141.312 59.125C141.104 59.1667 140.917 59.2708 140.75 59.4375C140.542 59.6042 140.354 59.7917 140.188 60C140.021 60.2083 139.854 60.375 139.688 60.5C139.604 60.7083 139.625 60.875 139.75 61C139.875 61.1667 140.021 61.3333 140.188 61.5C140.021 61.9583 139.812 62.2292 139.562 62.3125C139.271 62.4375 138.979 62.4583 138.688 62.375C138.354 62.2917 138.042 62.1458 137.75 61.9375C137.417 61.7708 137.125 61.625 136.875 61.5C136.75 60.9583 136.667 60.3333 136.625 59.625C136.583 58.9167 136.604 58.2292 136.688 57.5625C136.771 56.8542 136.938 56.1875 137.188 55.5625C137.438 54.9375 137.812 54.4167 138.312 54C138.479 53.875 138.583 53.8125 138.625 53.8125C138.667 53.7708 138.688 53.75 138.688 53.75C138.688 53.75 138.708 53.75 138.75 53.75C138.792 53.7083 138.875 53.625 139 53.5C139.333 53.125 139.562 52.7292 139.688 52.3125C139.812 51.8542 139.917 51.3958 140 50.9375C140.083 50.4792 140.208 50.0417 140.375 49.625C140.5 49.1667 140.75 48.7708 141.125 48.4375C140.958 47.7708 140.958 47.1875 141.125 46.6875C141.333 46.1458 141.583 45.6458 141.875 45.1875C142.208 44.6875 142.521 44.2083 142.812 43.75C143.146 43.25 143.354 42.7083 143.438 42.125C143.479 41.9167 143.479 41.7292 143.438 41.5625C143.438 41.3542 143.438 41.1458 143.438 40.9375C143.354 40.2708 143.417 39.7708 143.625 39.4375C143.875 39.0625 144.167 38.7708 144.5 38.5625C144.875 38.3125 145.25 38.0625 145.625 37.8125C146.042 37.5625 146.396 37.1875 146.688 36.6875C147.896 37.2708 148.604 38.0625 148.812 39.0625C149.062 40.0208 149.146 41.1042 149.062 42.3125C148.354 42.7708 147.812 43.4167 147.438 44.25C147.062 45.0417 146.812 45.8125 146.688 46.5625C146.771 46.8125 146.875 46.9583 147 47C147.167 47 147.333 46.9792 147.5 46.9375C147.708 46.8542 147.896 46.7708 148.062 46.6875C148.229 46.6042 148.396 46.5625 148.562 46.5625C150.062 45.5208 151.542 44.3542 153 43.0625C154.5 41.7708 155.667 40.2917 156.5 38.625C157.708 38.0417 158.854 37.375 159.938 36.625C161.021 35.8333 162.208 35.25 163.5 34.875L164.938 33.4375C165.146 33.7708 165.396 33.8542 165.688 33.6875C165.979 33.4792 166.271 33.25 166.562 33C166.854 32.75 167.125 32.6042 167.375 32.5625C167.667 32.5208 167.938 32.8125 168.188 33.4375C168.604 34.5208 168.708 35.5833 168.5 36.625C168.292 37.625 167.958 38.625 167.5 39.625C167.083 40.5833 166.646 41.5625 166.188 42.5625C165.729 43.5625 165.458 44.5833 165.375 45.625C165.375 45.875 165.375 46.1458 165.375 46.4375C165.375 46.6875 165.354 46.9583 165.312 47.25C165.229 48.125 165.104 49.0833 164.938 50.125C164.812 51.125 164.875 52.0417 165.125 52.875C165.333 53.625 165.771 54.2917 166.438 54.875C167.104 55.4583 167.688 56.0417 168.188 56.625C168.479 56.5833 168.771 56.6042 169.062 56.6875C169.354 56.7708 169.625 56.8542 169.875 56.9375C170.167 57.0208 170.438 57.0625 170.688 57.0625C170.938 57.0208 171.188 56.875 171.438 56.625C171.729 56.5 172 56.5208 172.25 56.6875C172.542 56.8125 172.812 56.9792 173.062 57.1875C173.312 57.3958 173.562 57.5833 173.812 57.75C174.104 57.875 174.417 57.875 174.75 57.75ZM247.688 42.5C247.312 43.5417 246.729 44.5 245.938 45.375C245.188 46.25 244.375 47.1042 243.5 47.9375C242.625 48.7708 241.75 49.6042 240.875 50.4375C240.042 51.2292 239.333 52.0625 238.75 52.9375C238.375 52.8125 238.042 52.8542 237.75 53.0625C237.5 53.2708 237.271 53.5417 237.062 53.875C236.604 54.0417 236.125 54.2292 235.625 54.4375C235.167 54.6042 234.708 54.8125 234.25 55.0625C233.833 55.3125 233.438 55.6042 233.062 55.9375C232.729 56.2708 232.479 56.6875 232.312 57.1875C231.521 57.2292 230.833 57.3958 230.25 57.6875C229.667 57.9375 229.104 58.2083 228.562 58.5C228.021 58.7917 227.438 59.0417 226.812 59.25C226.188 59.4167 225.438 59.4375 224.562 59.3125C224.396 59.9375 224.167 60.2292 223.875 60.1875C223.625 60.1875 223.354 60.125 223.062 60C222.771 59.8333 222.479 59.75 222.188 59.75C221.896 59.7083 221.667 60 221.5 60.625C221.208 60.625 220.896 60.6042 220.562 60.5625C220.271 60.5625 219.979 60.5625 219.688 60.5625C219.438 60.6042 219.188 60.6875 218.938 60.8125C218.729 60.9375 218.562 61.1667 218.438 61.5C217.229 61.5 215.958 61.5833 214.625 61.75C213.292 61.9167 211.958 62 210.625 62C209.333 62 208.062 61.8333 206.812 61.5C205.604 61.2083 204.521 60.5833 203.562 59.625C203.229 59.2917 202.958 58.9583 202.75 58.625C202.542 58.2917 202.312 57.9167 202.062 57.5C201.938 57.2917 201.812 57.1042 201.688 56.9375C201.562 56.7292 201.438 56.5 201.312 56.25C200.979 55.5 200.792 54.7292 200.75 53.9375C200.708 53.1458 200.708 52.3542 200.75 51.5625C200.75 50.7708 200.75 50 200.75 49.25C200.75 48.4583 200.604 47.6875 200.312 46.9375C200.312 46.2292 200.479 45.6042 200.812 45.0625C201.104 44.4792 201.438 43.9167 201.812 43.375C202.188 42.8333 202.542 42.2917 202.875 41.75C203.208 41.1667 203.396 40.5417 203.438 39.875C203.146 39.1667 203.167 38.4792 203.5 37.8125C203.833 37.1458 204.167 36.5208 204.5 35.9375C204.625 35.7292 204.729 35.5208 204.812 35.3125C204.938 35.0625 205.062 34.8125 205.188 34.5625C205.312 34.3125 205.479 34.0625 205.688 33.8125C205.896 33.5625 206.083 33.3333 206.25 33.125C206.792 32.375 207.333 31.6458 207.875 30.9375C208.417 30.2292 208.958 29.5 209.5 28.75C209.875 28.25 210.229 27.75 210.562 27.25C210.938 26.75 211.292 26.2292 211.625 25.6875C211.792 25.4375 211.958 25.1667 212.125 24.875C212.292 24.5417 212.458 24.2708 212.625 24.0625C212.833 23.8125 213.188 23.5417 213.688 23.25C214.188 22.9167 214.583 22.6667 214.875 22.5C215.708 22.0833 216.604 21.7917 217.562 21.625C218.521 21.4167 219.417 21.3958 220.25 21.5625C221.083 21.7292 221.812 22.125 222.438 22.75C223.104 23.3333 223.542 24.1875 223.75 25.3125C223.833 25.8542 223.854 26.3958 223.812 26.9375C223.812 27.4375 223.833 27.9375 223.875 28.4375C223.958 28.9375 224.104 29.4167 224.312 29.875C224.521 30.2917 224.896 30.6875 225.438 31.0625C224.979 31.7708 224.583 32.5 224.25 33.25C223.958 34 223.625 34.75 223.25 35.5C223.667 35.625 223.833 35.875 223.75 36.25C223.708 36.5833 223.708 36.8958 223.75 37.1875C223.167 37.6458 222.771 38.2083 222.562 38.875C222.354 39.5417 222.188 40.2292 222.062 40.9375C221.938 41.6042 221.771 42.25 221.562 42.875C221.396 43.4583 221.062 43.9375 220.562 44.3125C220.812 45.6458 220.396 46.5208 219.312 46.9375C218.562 47.2292 218.062 47.2917 217.812 47.125C217.562 46.9167 217.375 46.6458 217.25 46.3125C217.167 45.9375 217.042 45.5833 216.875 45.25C216.708 44.9167 216.354 44.75 215.812 44.75C215.896 44.25 215.958 43.75 216 43.25C216.083 42.7083 216.188 42.1875 216.312 41.6875C216.438 41.1875 216.625 40.7083 216.875 40.25C217.125 39.7917 217.479 39.375 217.938 39C217.562 38.7917 217.417 38.4792 217.5 38.0625C217.583 37.6042 217.583 37.1875 217.5 36.8125C217.792 35.9792 218.229 35.1042 218.812 34.1875C219.396 33.2708 219.917 32.3542 220.375 31.4375C220.833 30.4792 221.125 29.5208 221.25 28.5625C221.375 27.6042 221.146 26.6667 220.562 25.75C220.396 25.5 220.146 25.2917 219.812 25.125C219.521 24.9583 219.229 24.875 218.938 24.875C218.646 24.875 218.396 24.9792 218.188 25.1875C217.979 25.3958 217.896 25.7292 217.938 26.1875L218.438 26.625C217.646 26.875 216.938 27.2917 216.312 27.875C215.729 28.4583 215.167 29.1042 214.625 29.8125C214.083 30.4792 213.542 31.1667 213 31.875C212.5 32.5833 211.958 33.1875 211.375 33.6875C211.083 34.8542 210.625 35.9375 210 36.9375C209.417 37.9375 208.833 38.9375 208.25 39.9375C207.917 40.5625 207.667 41.0833 207.5 41.5C207.375 41.9167 207.188 42.4167 206.938 43C206.854 43.2083 206.75 43.4167 206.625 43.625C206.542 43.7917 206.458 43.9792 206.375 44.1875C206.125 45.1042 205.896 46 205.688 46.875C205.521 47.75 205.042 48.5 204.25 49.125C204.375 49.4583 204.479 49.7708 204.562 50.0625C204.688 50.3542 204.896 50.6458 205.188 50.9375C204.729 51.1875 204.458 51.5 204.375 51.875C204.333 52.2083 204.354 52.5833 204.438 53C204.562 53.375 204.708 53.7708 204.875 54.1875C205.083 54.5625 205.188 54.9375 205.188 55.3125C205.688 55.3542 206.146 55.5417 206.562 55.875C206.979 56.2083 207.396 56.5417 207.812 56.875C208.271 57.2083 208.708 57.4792 209.125 57.6875C209.542 57.8542 210 57.7917 210.5 57.5C210.833 57.5833 211.146 57.6042 211.438 57.5625C211.729 57.5208 212.021 57.5 212.312 57.5C212.604 57.4583 212.875 57.5 213.125 57.625C213.417 57.75 213.708 58 214 58.375C214.292 57.75 214.688 57.375 215.188 57.25C215.688 57.125 216.208 57.0625 216.75 57.0625C217.333 57.0625 217.875 57.0417 218.375 57C218.917 56.9583 219.375 56.7083 219.75 56.25C220.25 56.6667 220.688 56.8333 221.062 56.75C221.479 56.6667 221.854 56.4792 222.188 56.1875C222.562 55.8958 222.938 55.6042 223.312 55.3125C223.688 55.0208 224.104 54.875 224.562 54.875C225.562 54.875 226.438 54.7292 227.188 54.4375C227.938 54.1458 228.667 53.8125 229.375 53.4375C230.083 53.0208 230.792 52.625 231.5 52.25C232.25 51.875 233.104 51.6042 234.062 51.4375C234.479 50.8125 234.958 50.375 235.5 50.125C236.083 49.8333 236.667 49.5833 237.25 49.375C237.875 49.125 238.458 48.8333 239 48.5C239.583 48.125 240.104 47.5417 240.562 46.75C241.396 46.7917 242.083 46.5625 242.625 46.0625C243.167 45.5208 243.688 44.9583 244.188 44.375C244.688 43.75 245.188 43.2292 245.688 42.8125C246.229 42.3542 246.896 42.25 247.688 42.5ZM286.312 40.875C285.938 41.25 285.646 41.5417 285.438 41.75C285.271 41.9583 285.104 42.1667 284.938 42.375C284.812 42.5417 284.646 42.7292 284.438 42.9375C284.271 43.1458 284 43.4583 283.625 43.875C283.292 44.2083 282.979 44.5625 282.688 44.9375C282.396 45.3125 282.062 45.6458 281.688 45.9375C281.188 45.8125 280.792 45.875 280.5 46.125C280.25 46.375 280 46.6667 279.75 47C279.542 47.2917 279.333 47.5833 279.125 47.875C278.958 48.125 278.729 48.2292 278.438 48.1875C277.438 48.7292 276.438 49.2083 275.438 49.625C274.438 50 273.479 50.5625 272.562 51.3125L272.062 50.8125L265.562 53.9375C265.354 54.0208 265.146 54.1458 264.938 54.3125C264.729 54.4792 264.521 54.625 264.312 54.75C263.396 55.25 262.438 55.7083 261.438 56.125C260.479 56.5 259.521 56.8542 258.562 57.1875L257.75 57.4375C258.083 58.2708 258.083 58.8542 257.75 59.1875C257.417 59.5208 256.938 59.7708 256.312 59.9375C255.688 60.0625 255 60.1458 254.25 60.1875C253.5 60.2292 252.917 60.375 252.5 60.625C252 60.5417 251.479 60.5 250.938 60.5C250.438 60.5417 249.917 60.6042 249.375 60.6875C248.792 60.7708 248.25 60.8125 247.75 60.8125C247.25 60.8125 246.708 60.75 246.125 60.625H246C245.292 60.9583 244.667 61.0208 244.125 60.8125C243.625 60.6458 243.167 60.3542 242.75 59.9375C242.333 59.4792 241.938 58.9583 241.562 58.375C241.229 57.75 240.875 57.1875 240.5 56.6875C240.25 56.3542 239.938 55.875 239.562 55.25C239.188 54.625 238.875 53.9583 238.625 53.25C238.333 52.5417 238.167 51.8333 238.125 51.125C238.042 50.375 238.188 49.7292 238.562 49.1875C238.938 48.6458 239.25 48.0625 239.5 47.4375C239.708 46.8125 239.812 46.0833 239.812 45.25C239.812 44.9583 239.812 44.6875 239.812 44.4375C239.771 44.1875 239.75 43.9167 239.75 43.625C239.958 43.625 240.188 43.6458 240.438 43.6875C240.688 43.6875 240.917 43.6875 241.125 43.6875C241.375 43.6458 241.562 43.5625 241.688 43.4375C241.854 43.2708 241.938 43 241.938 42.625C241.938 42.4167 241.854 42.25 241.688 42.125C241.562 42 241.479 41.875 241.438 41.75C241.688 41.375 241.917 41.0833 242.125 40.875C242.375 40.625 242.583 40.3958 242.75 40.1875C242.917 39.9375 243.042 39.6667 243.125 39.375C243.208 39.0417 243.188 38.6042 243.062 38.0625C243.562 37.1875 244.146 36.4167 244.812 35.75C245.521 35.0417 246.25 34.3958 247 33.8125C247.75 33.1875 248.521 32.5833 249.312 32C250.104 31.4167 250.854 30.7917 251.562 30.125C252.354 30.4583 252.979 30.4583 253.438 30.125C253.938 29.7917 254.375 29.4375 254.75 29.0625C255.125 28.6458 255.5 28.3125 255.875 28.0625C256.25 27.8125 256.75 27.9167 257.375 28.375L257.5 28.5C258.625 27.375 259.75 26.875 260.875 27C262.042 27.125 263.021 27.5 263.812 28.125C264.646 28.75 265.188 29.4792 265.438 30.3125C265.688 31.1042 265.458 31.6458 264.75 31.9375C265.208 32.3958 265.438 32.9375 265.438 33.5625C265.438 34.1875 265.271 34.7292 264.938 35.1875C264.562 35.6875 264.229 36.2083 263.938 36.75C263.688 37.25 263.417 37.7917 263.125 38.375C262.708 39.3333 262.25 40.25 261.75 41.125C261.25 41.9583 260.542 42.6667 259.625 43.25C258.875 43.0417 258.354 43.125 258.062 43.5C257.812 43.875 257.625 44.2917 257.5 44.75C257.375 45.1667 257.229 45.5 257.062 45.75C256.896 46 256.542 45.9167 256 45.5L255.875 45.375L255.75 45.5C255.417 45.8333 255.146 46.2083 254.938 46.625C254.771 47.0417 254.521 47.3542 254.188 47.5625C253.812 47.4375 253.417 47.3333 253 47.25C252.583 47.1667 252.188 47.0833 251.812 47C251.812 47.875 251.646 48.5625 251.312 49.0625C250.979 49.5625 250.542 49.9792 250 50.3125C249.5 50.6042 248.917 50.8542 248.25 51.0625C247.583 51.2292 246.917 51.4583 246.25 51.75C245.625 52 245.021 52.3333 244.438 52.75C243.896 53.125 243.458 53.6667 243.125 54.375C243.542 54.8333 244.062 55.1042 244.688 55.1875C245.312 55.2292 245.958 55.2292 246.625 55.1875C247.292 55.1042 247.938 55.0625 248.562 55.0625C249.229 55.0625 249.812 55.2292 250.312 55.5625L250.375 55.625L250.438 55.5625C251.438 55.4375 252.396 55.2083 253.312 54.875C254.271 54.5 255.188 54.125 256.062 53.75C256.979 53.3333 257.896 52.9583 258.812 52.625C259.771 52.25 260.75 51.9792 261.75 51.8125C261.958 52.1458 262.229 52.3333 262.562 52.375C262.938 52.4167 263.292 52.3958 263.625 52.3125L263.688 52.1875C263.771 51.8958 263.854 51.6458 263.938 51.4375C264.021 51.1875 264.146 50.9167 264.312 50.625C264.604 50.1667 264.958 49.8125 265.375 49.5625C265.792 49.3125 266.229 49.125 266.688 49C267.188 48.875 267.708 48.7917 268.25 48.75C268.792 48.7083 269.333 48.6458 269.875 48.5625H270L270.062 48.375C270.229 47.875 270.438 47.5417 270.688 47.375C270.979 47.1667 271.271 47.0208 271.562 46.9375C271.896 46.8542 272.229 46.7917 272.562 46.75C272.938 46.7083 273.292 46.5833 273.625 46.375C274.375 46.625 275 46.5417 275.5 46.125C276 45.7083 276.479 45.2708 276.938 44.8125L277.438 45.4375L277.625 45.1875C278.25 44.6042 278.708 44.1667 279 43.875C279.333 43.5833 279.646 43.3333 279.938 43.125C280.229 42.875 280.562 42.6458 280.938 42.4375C281.354 42.1875 281.917 41.8333 282.625 41.375C283.208 41 283.771 40.625 284.312 40.25C284.896 39.875 285.458 39.4583 286 39C286.208 39.0833 286.312 39.25 286.312 39.5C286.312 39.7083 286.312 39.9167 286.312 40.125C286.271 40.2083 286.229 40.3333 286.188 40.5C286.188 40.6667 286.229 40.7917 286.312 40.875ZM260.438 33.0625C260.396 33.0208 260.354 33 260.312 33C260.312 33 260.292 32.9792 260.25 32.9375C259.375 32.4792 258.646 32.2708 258.062 32.3125C257.479 32.3125 256.938 32.4792 256.438 32.8125C255.979 33.1042 255.542 33.5 255.125 34C254.75 34.4583 254.333 34.8958 253.875 35.3125C253.458 35.6875 252.958 35.9792 252.375 36.1875C251.792 36.3958 251.083 36.375 250.25 36.125C250.125 36.7917 250 37.4583 249.875 38.125C249.792 38.75 249.729 39.3958 249.688 40.0625C248.979 40.3125 248.417 40.6667 248 41.125C247.625 41.5833 247.292 42.0833 247 42.625C246.75 43.1667 246.5 43.75 246.25 44.375C246.042 44.9583 245.75 45.5208 245.375 46.0625L245.625 46.375C245.792 46.2917 245.979 46.3542 246.188 46.5625C246.396 46.7708 246.542 46.9167 246.625 47C247.083 46.3333 247.688 45.7708 248.438 45.3125C249.229 44.8542 250.021 44.4375 250.812 44.0625C251.646 43.6458 252.438 43.2083 253.188 42.75C253.938 42.2917 254.5 41.6875 254.875 40.9375C256.208 40.5625 257.208 39.8125 257.875 38.6875C258.542 37.5625 259.104 36.3958 259.562 35.1875C259.646 34.9375 259.792 34.5833 260 34.125C260.25 33.625 260.396 33.2708 260.438 33.0625ZM322.438 47.625C321.479 48.0833 320.833 48.6458 320.5 49.3125C320.167 49.9792 319.896 50.6667 319.688 51.375C319.521 52.0833 319.292 52.7708 319 53.4375C318.75 54.0625 318.188 54.5833 317.312 55C317.104 55.75 316.688 56.2708 316.062 56.5625C315.479 56.8542 314.854 57.125 314.188 57.375C313.521 57.5833 312.917 57.875 312.375 58.25C311.875 58.625 311.625 59.2708 311.625 60.1875C310.792 60.6458 309.875 61.0625 308.875 61.4375C307.917 61.8125 306.896 62.0833 305.812 62.25C304.771 62.4583 303.729 62.5417 302.688 62.5C301.646 62.4583 300.667 62.25 299.75 61.875C299.125 61.5833 298.521 61.2083 297.938 60.75C297.729 60.5833 297.521 60.4375 297.312 60.3125C297.146 60.2292 296.958 60.0833 296.75 59.875C296.25 59.375 295.833 58.7917 295.5 58.125C295.167 57.4583 294.896 56.75 294.688 56C294.479 55.25 294.312 54.5 294.188 53.75C294.062 53 293.958 52.2917 293.875 51.625L296.188 45.375C294.979 44.4167 294 43.3125 293.25 42.0625C292.5 40.7708 291.583 39.5833 290.5 38.5C290.292 38.7917 290.021 39.0417 289.688 39.25C289.354 39.4583 289.229 39.7917 289.312 40.25L289.938 40.8125C288.562 42.3125 287.167 44.0208 285.75 45.9375C284.375 47.8125 283.292 49.7083 282.5 51.625C281.583 51.5833 280.938 51.8125 280.562 52.3125C280.188 52.7708 279.875 53.3125 279.625 53.9375C279.375 54.5208 279.062 55.0625 278.688 55.5625C278.312 56.0625 277.688 56.2708 276.812 56.1875C276.604 56.6458 276.396 57.1458 276.188 57.6875C275.979 58.1875 275.729 58.6667 275.438 59.125C275.146 59.5833 274.792 59.9583 274.375 60.25C273.958 60.5833 273.438 60.75 272.812 60.75C272.479 60.4167 272.292 60.0625 272.25 59.6875C272.208 59.3125 272.25 58.9375 272.375 58.5625C272.5 58.1458 272.667 57.75 272.875 57.375C273.083 56.9583 273.229 56.5625 273.312 56.1875C273.646 54.9792 274.25 53.8958 275.125 52.9375C276 51.9375 276.875 50.9583 277.75 50C278.625 49 279.375 47.9583 280 46.875C280.625 45.7917 280.875 44.5208 280.75 43.0625C281.292 43.0208 281.833 42.9167 282.375 42.75C282.958 42.5417 283.479 42.2917 283.938 42C284.438 41.6667 284.812 41.2708 285.062 40.8125C285.354 40.3125 285.458 39.7292 285.375 39.0625C285.042 38.8958 284.854 38.6667 284.812 38.375C284.771 38.0417 284.771 37.7083 284.812 37.375C285.729 37.0833 286.458 36.5833 287 35.875C287.583 35.125 288.104 34.3333 288.562 33.5C289.021 32.6667 289.458 31.8333 289.875 31C290.333 30.125 290.917 29.375 291.625 28.75C292.208 29.0833 292.792 29.375 293.375 29.625C293.958 29.8333 294.521 30.125 295.062 30.5C294.688 31 294.458 31.4792 294.375 31.9375C294.292 32.3958 294.25 32.875 294.25 33.375C294.25 33.8333 294.25 34.2917 294.25 34.75C294.25 35.2083 294.125 35.6875 293.875 36.1875C294.542 36.7708 295.104 37.4583 295.562 38.25C296.021 39.0417 296.604 39.7083 297.312 40.25C297.812 39.875 298.375 39.6875 299 39.6875C299.625 39.6458 300.25 39.6458 300.875 39.6875C301.542 39.6875 302.167 39.6458 302.75 39.5625C303.333 39.4375 303.812 39.0833 304.188 38.5C304.354 38.6667 304.604 38.75 304.938 38.75C305.271 38.75 305.604 38.75 305.938 38.75C306.271 38.75 306.562 38.8125 306.812 38.9375C307.062 39.0208 307.208 39.2083 307.25 39.5C307.292 39.8333 307.271 40.0625 307.188 40.1875C307.146 40.3125 307.083 40.5208 307 40.8125C306.917 41.1458 306.896 41.3125 306.938 41.3125C306.979 41.3125 306.938 41.4583 306.812 41.75C306.604 42.2917 306.25 42.75 305.75 43.125C305.292 43.5 304.812 43.875 304.312 44.25C303.854 44.5833 303.417 44.9792 303 45.4375C302.625 45.8542 302.438 46.3958 302.438 47.0625C301.521 47.3958 300.875 47.8958 300.5 48.5625C300.125 49.1875 299.875 49.9167 299.75 50.75C299.625 51.5417 299.542 52.375 299.5 53.25C299.458 54.0833 299.312 54.8542 299.062 55.5625L299.625 56.1875L300.125 55.5625C300.708 56.3958 301.396 56.9167 302.188 57.125C303.021 57.3333 303.875 57.3958 304.75 57.3125C305.167 56.6875 305.646 56.1875 306.188 55.8125C306.771 55.4375 307.375 55.125 308 54.875C308.667 54.625 309.333 54.3958 310 54.1875C310.708 53.9792 311.375 53.7292 312 53.4375C312.5 53.1875 312.917 52.9167 313.25 52.625C313.625 52.3333 314.021 52 314.438 51.625C315.688 50.4583 316.917 49.3125 318.125 48.1875C319.375 47.0625 320.625 45.9167 321.875 44.75C322.125 44.75 322.292 44.875 322.375 45.125C322.458 45.375 322.5 45.6667 322.5 46C322.5 46.2917 322.479 46.6042 322.438 46.9375C322.438 47.2292 322.438 47.4583 322.438 47.625ZM367.562 46.375C366.646 48.4583 365.812 50.0833 365.062 51.25C364.312 52.375 363.479 53.3125 362.562 54.0625C361.688 54.8125 360.667 55.5208 359.5 56.1875C358.333 56.8125 356.896 57.7083 355.188 58.875C354.479 58.9167 353.708 59.0833 352.875 59.375C352.042 59.625 351.333 59.9792 350.75 60.4375C349.5 60.3125 348.354 60.0417 347.312 59.625C346.271 59.2083 345.292 58.5417 344.375 57.625C344.167 57.4167 343.979 57.1875 343.812 56.9375C343.646 56.6875 343.458 56.4583 343.25 56.25C342.792 55.7083 342.5 55.2292 342.375 54.8125C342.25 54.3958 342.146 53.8542 342.062 53.1875C341.896 52.2292 341.646 51.5417 341.312 51.125C340.979 50.7083 340.333 50.9167 339.375 51.75L338.812 51.25L338.688 51.375C338.312 51.6667 338 51.9167 337.75 52.125C337.542 52.3333 337.312 52.5625 337.062 52.8125C336.854 53.0208 336.646 53.25 336.438 53.5C336.229 53.75 335.979 54.0625 335.688 54.4375C335.188 55.0625 334.625 55.7083 334 56.375C333.417 57.0417 332.729 57.5 331.938 57.75C331.812 57.875 331.708 58 331.625 58.125C331.542 58.2083 331.396 58.2708 331.188 58.3125C330.938 58.3958 330.646 58.375 330.312 58.25C329.979 58.125 329.708 57.9583 329.5 57.75C329.042 57.75 328.625 57.875 328.25 58.125C327.917 58.3333 327.583 58.625 327.25 59C326.958 59.3333 326.667 59.6875 326.375 60.0625C326.125 60.4375 325.833 60.75 325.5 61C324.833 60.75 324.208 60.7083 323.625 60.875C323.083 61.0417 322.542 61.1875 322 61.3125C321.458 61.4792 320.917 61.5417 320.375 61.5C319.833 61.5 319.292 61.1875 318.75 60.5625C318.5 59.3125 318.292 58.1667 318.125 57.125C317.958 56.25 317.812 55.4167 317.688 54.625C317.562 53.8333 317.5 53.3542 317.5 53.1875C317.708 52.9792 317.812 52.7083 317.812 52.375C317.771 52 317.708 51.6875 317.625 51.4375C317.542 51.3958 317.5 51.3542 317.5 51.3125C317.5 51.2708 317.458 51.2292 317.375 51.1875C317.583 51.0208 317.75 50.8125 317.875 50.5625C317.958 50.3125 318.104 50.1042 318.312 49.9375C318.188 49.6042 318.042 49.2292 317.875 48.8125C317.708 48.3958 317.625 47.9792 317.625 47.5625C317.75 47.2292 317.875 47.0417 318 47C318.083 46.9583 318.312 46.8958 318.688 46.8125C318.646 46.6042 318.604 46.4167 318.562 46.25C318.479 46.0417 318.458 45.8333 318.5 45.625C318.5 45.2083 318.604 44.8542 318.812 44.5625C318.979 44.2292 319.167 43.9167 319.375 43.625C319.583 43.2917 319.771 42.9375 319.938 42.5625C320.104 42.1875 320.188 41.75 320.188 41.25V40.9375C320.812 40.9375 321.229 40.7708 321.438 40.4375C321.646 40.0625 321.771 39.6458 321.812 39.1875C321.854 38.7292 321.875 38.2708 321.875 37.8125C321.875 37.3542 322 37.0208 322.25 36.8125C322.417 36.6458 322.562 36.5833 322.688 36.625C322.854 36.625 323.042 36.625 323.25 36.625C323.5 36.3333 323.667 36.125 323.75 36C323.833 35.8333 323.812 35.5417 323.688 35.125C323.979 35.125 324.208 35.0625 324.375 34.9375C324.542 34.8125 324.667 34.6458 324.75 34.4375C324.875 34.2292 324.979 34.0208 325.062 33.8125C325.188 33.6042 325.333 33.4167 325.5 33.25C325.5 32.2083 325.771 31.4792 326.312 31.0625C326.854 30.6458 327.458 30.3125 328.125 30.0625C328.833 29.7708 329.521 29.4375 330.188 29.0625C330.896 28.6875 331.417 28.0208 331.75 27.0625C332.292 27.3958 332.75 27.4375 333.125 27.1875C333.5 26.8958 333.854 26.6042 334.188 26.3125C334.521 25.9792 334.896 25.7708 335.312 25.6875C335.729 25.5625 336.25 25.8333 336.875 26.5C337.125 25.7083 337.625 25.2917 338.375 25.25C339.167 25.2083 339.875 25.375 340.5 25.75V25.8125H340.562C341.229 25.9375 341.729 26.2708 342.062 26.8125C342.396 27.3125 342.667 27.8958 342.875 28.5625C343.125 29.1875 343.375 29.8125 343.625 30.4375C343.917 31.0625 344.312 31.5625 344.812 31.9375C345.062 30.8542 345.292 29.75 345.5 28.625C345.75 27.5 346.146 26.4375 346.688 25.4375C347.062 25.8958 347.458 25.9792 347.875 25.6875L347.812 25.5625C347.812 24.8958 347.938 24.2917 348.188 23.75C348.479 23.2083 348.75 22.6875 349 22.1875C349.292 21.6458 349.458 21.1042 349.5 20.5625C349.583 19.9792 349.396 19.3333 348.938 18.625C349.646 18.4167 350.146 18.0208 350.438 17.4375C350.771 16.8542 351.021 16.2292 351.188 15.5625C351.396 14.8542 351.604 14.1458 351.812 13.4375C352.062 12.7292 352.438 12.125 352.938 11.625C352.938 11.5 352.917 11.375 352.875 11.25C352.875 11.125 352.875 11 352.875 10.875C352.917 10.5417 353.042 10.25 353.25 10C353.458 9.75 353.688 9.5 353.938 9.25C354.188 9 354.396 8.72917 354.562 8.4375C354.771 8.10417 354.854 7.70833 354.812 7.25C355.229 6.70833 355.604 6 355.938 5.125C356.271 4.20833 356.625 3.35417 357 2.5625C357.375 1.77083 357.812 1.1875 358.312 0.8125C358.812 0.395833 359.458 0.416667 360.25 0.875C360.417 1.375 360.479 1.83333 360.438 2.25C360.396 2.625 360.167 3.02083 359.75 3.4375C360 3.6875 360.188 3.89583 360.312 4.0625C360.188 5.35417 359.938 6.64583 359.562 7.9375C359.229 9.1875 358.896 10.4167 358.562 11.625C358.646 11.7083 358.729 11.7917 358.812 11.875C358.896 11.9583 358.979 12.0417 359.062 12.125C358.354 13.125 357.771 14.125 357.312 15.125C356.896 16.125 356.521 17.2083 356.188 18.375C356.062 18.8333 355.938 19.3125 355.812 19.8125C355.729 20.3125 355.604 20.7708 355.438 21.1875C355.229 21.6042 354.979 22.0625 354.688 22.5625C354.396 23.0208 354.146 23.4792 353.938 23.9375C353.479 24.8958 353.062 25.875 352.688 26.875C352.354 27.8333 352.021 28.8125 351.688 29.8125C351.271 31.0208 350.833 32.2083 350.375 33.375C349.958 34.5417 349.438 35.6875 348.812 36.8125V37.8125C348.771 38.2708 348.625 38.6042 348.375 38.8125C348.125 38.9792 347.833 39.1458 347.5 39.3125C347.208 39.4375 346.917 39.6458 346.625 39.9375C346.333 40.1875 346.125 40.625 346 41.25V41.3125L346.062 41.375C346.479 42.2917 346.562 43.1458 346.312 43.9375C346.104 44.6875 345.854 45.4375 345.562 46.1875C345.271 46.8958 345.062 47.6042 344.938 48.3125C344.854 49.0208 345.146 49.75 345.812 50.5C345.771 51.3333 345.938 52 346.312 52.5C346.688 52.9583 347.125 53.3542 347.625 53.6875C348.125 54.0208 348.625 54.3333 349.125 54.625C349.667 54.875 350.062 55.2083 350.312 55.625C350.729 55.2083 351.167 54.8958 351.625 54.6875C352.125 54.4375 352.604 54.25 353.062 54.125C353.562 54 354.042 53.8958 354.5 53.8125C355 53.6875 355.479 53.5417 355.938 53.375C357.021 53.0833 357.771 52.7292 358.188 52.3125C358.604 51.8958 358.812 51.625 358.812 51.5C358.854 50.9167 359.062 50.5417 359.438 50.375C359.854 50.2083 360.312 50.1042 360.812 50.0625C361.354 49.9792 361.875 49.875 362.375 49.75C362.917 49.625 363.312 49.3125 363.562 48.8125C364.021 48.8542 364.417 48.7083 364.75 48.375C365.125 48 365.458 47.625 365.75 47.25C366.042 46.875 366.333 46.5625 366.625 46.3125C366.917 46.0625 367.229 46.0833 367.562 46.375ZM341.875 36.75C341.208 36.25 340.75 35.6875 340.5 35.0625C340.292 34.3958 340.104 33.7292 339.938 33.0625C339.812 32.3958 339.625 31.7708 339.375 31.1875C339.167 30.5625 338.729 30.0417 338.062 29.625L337.938 29.5625C337.896 29.5625 337.667 29.6042 337.25 29.6875C336.833 29.7708 336.583 29.8333 336.5 29.875C336.833 30.1667 337.042 30.4167 337.125 30.625C337.208 30.8333 337.208 31.0417 337.125 31.25C337.083 31.4583 336.979 31.6875 336.812 31.9375C336.688 32.1458 336.583 32.4167 336.5 32.75C336.417 32.8333 336.25 32.8125 336 32.6875C335.75 32.5208 335.562 32.3958 335.438 32.3125C334.854 33.1875 334.021 33.7708 332.938 34.0625C331.896 34.3125 330.896 34.5625 329.938 34.8125C330.021 35.0208 330.104 35.2083 330.188 35.375C330.271 35.5417 330.354 35.7292 330.438 35.9375C329.188 36.7708 328.271 37.7917 327.688 39C327.146 40.1667 326.646 41.3958 326.188 42.6875C325.771 43.9375 325.25 45.1667 324.625 46.375C324.042 47.5417 323.125 48.5417 321.875 49.375C322.083 49.7083 322.229 50.0417 322.312 50.375C322.396 50.7083 322.667 50.9583 323.125 51.125C323.25 51.5833 323.292 52.0625 323.25 52.5625C323.25 53.0208 323.208 53.4792 323.125 53.9375C323.042 54.3958 322.979 54.875 322.938 55.375C322.938 55.8333 323 56.3125 323.125 56.8125L323.25 56.9375C324.542 57.3958 325.542 57.4375 326.25 57.0625C327 56.6875 327.646 56.2083 328.188 55.625C328.771 55.0417 329.396 54.5 330.062 54C330.729 53.5 331.667 53.375 332.875 53.625L333.125 53.25C333.042 53.0417 332.979 52.8542 332.938 52.6875C332.896 52.5208 332.875 52.3333 332.875 52.125C332.917 51.6667 333.042 51.3125 333.25 51.0625C333.458 50.7708 333.729 50.4583 334.062 50.125C334.354 49.7917 334.625 49.4375 334.875 49.0625C335.167 48.6875 335.438 48.2917 335.688 47.875C335.938 47.5 336.229 47.1875 336.562 46.9375C336.896 46.6458 337.333 46.6042 337.875 46.8125L339.062 42.3125C339.104 42.1042 339.292 41.9167 339.625 41.75C340 41.5833 340.312 41.3958 340.562 41.1875C340.854 40.9792 341.021 40.7083 341.062 40.375C341.146 40.0417 340.917 39.6042 340.375 39.0625C340.458 38.8958 340.521 38.6875 340.562 38.4375C340.604 38.1875 340.667 37.9583 340.75 37.75C340.833 37.5417 340.938 37.375 341.062 37.25C341.188 37.125 341.396 37.1042 341.688 37.1875L341.875 36.75ZM408.75 40.875C408.375 41.25 408.083 41.5417 407.875 41.75C407.708 41.9583 407.542 42.1667 407.375 42.375C407.25 42.5417 407.083 42.7292 406.875 42.9375C406.708 43.1458 406.438 43.4583 406.062 43.875C405.729 44.2083 405.417 44.5625 405.125 44.9375C404.833 45.3125 404.5 45.6458 404.125 45.9375C403.625 45.8125 403.229 45.875 402.938 46.125C402.688 46.375 402.438 46.6667 402.188 47C401.979 47.2917 401.771 47.5833 401.562 47.875C401.396 48.125 401.167 48.2292 400.875 48.1875C399.875 48.7292 398.875 49.2083 397.875 49.625C396.875 50 395.917 50.5625 395 51.3125L394.5 50.8125L388 53.9375C387.792 54.0208 387.583 54.1458 387.375 54.3125C387.167 54.4792 386.958 54.625 386.75 54.75C385.833 55.25 384.875 55.7083 383.875 56.125C382.917 56.5 381.958 56.8542 381 57.1875L380.188 57.4375C380.521 58.2708 380.521 58.8542 380.188 59.1875C379.854 59.5208 379.375 59.7708 378.75 59.9375C378.125 60.0625 377.438 60.1458 376.688 60.1875C375.938 60.2292 375.354 60.375 374.938 60.625C374.438 60.5417 373.917 60.5 373.375 60.5C372.875 60.5417 372.354 60.6042 371.812 60.6875C371.229 60.7708 370.688 60.8125 370.188 60.8125C369.688 60.8125 369.146 60.75 368.562 60.625H368.438C367.729 60.9583 367.104 61.0208 366.562 60.8125C366.062 60.6458 365.604 60.3542 365.188 59.9375C364.771 59.4792 364.375 58.9583 364 58.375C363.667 57.75 363.312 57.1875 362.938 56.6875C362.688 56.3542 362.375 55.875 362 55.25C361.625 54.625 361.312 53.9583 361.062 53.25C360.771 52.5417 360.604 51.8333 360.562 51.125C360.479 50.375 360.625 49.7292 361 49.1875C361.375 48.6458 361.688 48.0625 361.938 47.4375C362.146 46.8125 362.25 46.0833 362.25 45.25C362.25 44.9583 362.25 44.6875 362.25 44.4375C362.208 44.1875 362.188 43.9167 362.188 43.625C362.396 43.625 362.625 43.6458 362.875 43.6875C363.125 43.6875 363.354 43.6875 363.562 43.6875C363.812 43.6458 364 43.5625 364.125 43.4375C364.292 43.2708 364.375 43 364.375 42.625C364.375 42.4167 364.292 42.25 364.125 42.125C364 42 363.917 41.875 363.875 41.75C364.125 41.375 364.354 41.0833 364.562 40.875C364.812 40.625 365.021 40.3958 365.188 40.1875C365.354 39.9375 365.479 39.6667 365.562 39.375C365.646 39.0417 365.625 38.6042 365.5 38.0625C366 37.1875 366.583 36.4167 367.25 35.75C367.958 35.0417 368.688 34.3958 369.438 33.8125C370.188 33.1875 370.958 32.5833 371.75 32C372.542 31.4167 373.292 30.7917 374 30.125C374.792 30.4583 375.417 30.4583 375.875 30.125C376.375 29.7917 376.812 29.4375 377.188 29.0625C377.562 28.6458 377.938 28.3125 378.312 28.0625C378.688 27.8125 379.188 27.9167 379.812 28.375L379.938 28.5C381.062 27.375 382.188 26.875 383.312 27C384.479 27.125 385.458 27.5 386.25 28.125C387.083 28.75 387.625 29.4792 387.875 30.3125C388.125 31.1042 387.896 31.6458 387.188 31.9375C387.646 32.3958 387.875 32.9375 387.875 33.5625C387.875 34.1875 387.708 34.7292 387.375 35.1875C387 35.6875 386.667 36.2083 386.375 36.75C386.125 37.25 385.854 37.7917 385.562 38.375C385.146 39.3333 384.688 40.25 384.188 41.125C383.688 41.9583 382.979 42.6667 382.062 43.25C381.312 43.0417 380.792 43.125 380.5 43.5C380.25 43.875 380.062 44.2917 379.938 44.75C379.812 45.1667 379.667 45.5 379.5 45.75C379.333 46 378.979 45.9167 378.438 45.5L378.312 45.375L378.188 45.5C377.854 45.8333 377.583 46.2083 377.375 46.625C377.208 47.0417 376.958 47.3542 376.625 47.5625C376.25 47.4375 375.854 47.3333 375.438 47.25C375.021 47.1667 374.625 47.0833 374.25 47C374.25 47.875 374.083 48.5625 373.75 49.0625C373.417 49.5625 372.979 49.9792 372.438 50.3125C371.938 50.6042 371.354 50.8542 370.688 51.0625C370.021 51.2292 369.354 51.4583 368.688 51.75C368.062 52 367.458 52.3333 366.875 52.75C366.333 53.125 365.896 53.6667 365.562 54.375C365.979 54.8333 366.5 55.1042 367.125 55.1875C367.75 55.2292 368.396 55.2292 369.062 55.1875C369.729 55.1042 370.375 55.0625 371 55.0625C371.667 55.0625 372.25 55.2292 372.75 55.5625L372.812 55.625L372.875 55.5625C373.875 55.4375 374.833 55.2083 375.75 54.875C376.708 54.5 377.625 54.125 378.5 53.75C379.417 53.3333 380.333 52.9583 381.25 52.625C382.208 52.25 383.188 51.9792 384.188 51.8125C384.396 52.1458 384.667 52.3333 385 52.375C385.375 52.4167 385.729 52.3958 386.062 52.3125L386.125 52.1875C386.208 51.8958 386.292 51.6458 386.375 51.4375C386.458 51.1875 386.583 50.9167 386.75 50.625C387.042 50.1667 387.396 49.8125 387.812 49.5625C388.229 49.3125 388.667 49.125 389.125 49C389.625 48.875 390.146 48.7917 390.688 48.75C391.229 48.7083 391.771 48.6458 392.312 48.5625H392.438L392.5 48.375C392.667 47.875 392.875 47.5417 393.125 47.375C393.417 47.1667 393.708 47.0208 394 46.9375C394.333 46.8542 394.667 46.7917 395 46.75C395.375 46.7083 395.729 46.5833 396.062 46.375C396.812 46.625 397.438 46.5417 397.938 46.125C398.438 45.7083 398.917 45.2708 399.375 44.8125L399.875 45.4375L400.062 45.1875C400.688 44.6042 401.146 44.1667 401.438 43.875C401.771 43.5833 402.083 43.3333 402.375 43.125C402.667 42.875 403 42.6458 403.375 42.4375C403.792 42.1875 404.354 41.8333 405.062 41.375C405.646 41 406.208 40.625 406.75 40.25C407.333 39.875 407.896 39.4583 408.438 39C408.646 39.0833 408.75 39.25 408.75 39.5C408.75 39.7083 408.75 39.9167 408.75 40.125C408.708 40.2083 408.667 40.3333 408.625 40.5C408.625 40.6667 408.667 40.7917 408.75 40.875ZM382.875 33.0625C382.833 33.0208 382.792 33 382.75 33C382.75 33 382.729 32.9792 382.688 32.9375C381.812 32.4792 381.083 32.2708 380.5 32.3125C379.917 32.3125 379.375 32.4792 378.875 32.8125C378.417 33.1042 377.979 33.5 377.562 34C377.188 34.4583 376.771 34.8958 376.312 35.3125C375.896 35.6875 375.396 35.9792 374.812 36.1875C374.229 36.3958 373.521 36.375 372.688 36.125C372.562 36.7917 372.438 37.4583 372.312 38.125C372.229 38.75 372.167 39.3958 372.125 40.0625C371.417 40.3125 370.854 40.6667 370.438 41.125C370.062 41.5833 369.729 42.0833 369.438 42.625C369.188 43.1667 368.938 43.75 368.688 44.375C368.479 44.9583 368.188 45.5208 367.812 46.0625L368.062 46.375C368.229 46.2917 368.417 46.3542 368.625 46.5625C368.833 46.7708 368.979 46.9167 369.062 47C369.521 46.3333 370.125 45.7708 370.875 45.3125C371.667 44.8542 372.458 44.4375 373.25 44.0625C374.083 43.6458 374.875 43.2083 375.625 42.75C376.375 42.2917 376.938 41.6875 377.312 40.9375C378.646 40.5625 379.646 39.8125 380.312 38.6875C380.979 37.5625 381.542 36.3958 382 35.1875C382.083 34.9375 382.229 34.5833 382.438 34.125C382.688 33.625 382.833 33.2708 382.875 33.0625ZM434.062 57.75C434.104 58.25 434.021 58.625 433.812 58.875C433.604 59.125 433.312 59.3125 432.938 59.4375C432.604 59.5625 432.229 59.6667 431.812 59.75C431.396 59.7917 431.042 59.8958 430.75 60.0625C429.542 59.9375 428.375 59.7708 427.25 59.5625C426.125 59.3125 425.083 58.9583 424.125 58.5C423.167 58 422.292 57.3542 421.5 56.5625C420.75 55.7708 420.104 54.7708 419.562 53.5625C420.104 52.6875 420.292 51.7292 420.125 50.6875C419.958 49.6042 419.792 48.5625 419.625 47.5625C419.5 46.5625 419.521 45.6458 419.688 44.8125C419.896 43.9792 420.625 43.3125 421.875 42.8125C421.792 42.3542 421.792 41.8542 421.875 41.3125C422 40.7708 421.854 40.3125 421.438 39.9375C419.979 40.4375 418.708 41.1458 417.625 42.0625C416.542 42.9792 415.5 43.9792 414.5 45.0625C413.542 46.1458 412.562 47.25 411.562 48.375C410.604 49.4583 409.542 50.4167 408.375 51.25C407.833 51.2917 407.25 51.2708 406.625 51.1875C406.042 51.0625 405.542 51.2292 405.125 51.6875C405.167 51.9792 405.271 52.2292 405.438 52.4375C405.604 52.6458 405.729 52.8542 405.812 53.0625C405.938 53.2708 406 53.5 406 53.75C406 53.9583 405.854 54.2083 405.562 54.5C405.146 54.9167 404.688 55.2708 404.188 55.5625C403.729 55.8125 403.271 56.1042 402.812 56.4375C402.396 56.7292 402.042 57.0833 401.75 57.5C401.458 57.9167 401.312 58.4792 401.312 59.1875C401.062 59.0625 400.833 59.0417 400.625 59.125C400.417 59.1667 400.229 59.2708 400.062 59.4375C399.854 59.6042 399.667 59.7917 399.5 60C399.333 60.2083 399.167 60.375 399 60.5C398.917 60.7083 398.938 60.875 399.062 61C399.188 61.1667 399.333 61.3333 399.5 61.5C399.333 61.9583 399.125 62.2292 398.875 62.3125C398.583 62.4375 398.292 62.4583 398 62.375C397.667 62.2917 397.354 62.1458 397.062 61.9375C396.729 61.7708 396.438 61.625 396.188 61.5C396.062 60.9583 395.979 60.3333 395.938 59.625C395.896 58.9167 395.917 58.2292 396 57.5625C396.083 56.8542 396.25 56.1875 396.5 55.5625C396.75 54.9375 397.125 54.4167 397.625 54C397.792 53.875 397.896 53.8125 397.938 53.8125C397.979 53.7708 398 53.75 398 53.75C398 53.75 398.021 53.75 398.062 53.75C398.104 53.7083 398.188 53.625 398.312 53.5C398.646 53.125 398.875 52.7292 399 52.3125C399.125 51.8542 399.229 51.3958 399.312 50.9375C399.396 50.4792 399.521 50.0417 399.688 49.625C399.812 49.1667 400.062 48.7708 400.438 48.4375C400.271 47.7708 400.271 47.1875 400.438 46.6875C400.646 46.1458 400.896 45.6458 401.188 45.1875C401.521 44.6875 401.833 44.2083 402.125 43.75C402.458 43.25 402.667 42.7083 402.75 42.125C402.792 41.9167 402.792 41.7292 402.75 41.5625C402.75 41.3542 402.75 41.1458 402.75 40.9375C402.667 40.2708 402.729 39.7708 402.938 39.4375C403.188 39.0625 403.479 38.7708 403.812 38.5625C404.188 38.3125 404.562 38.0625 404.938 37.8125C405.354 37.5625 405.708 37.1875 406 36.6875C407.208 37.2708 407.917 38.0625 408.125 39.0625C408.375 40.0208 408.458 41.1042 408.375 42.3125C407.667 42.7708 407.125 43.4167 406.75 44.25C406.375 45.0417 406.125 45.8125 406 46.5625C406.083 46.8125 406.188 46.9583 406.312 47C406.479 47 406.646 46.9792 406.812 46.9375C407.021 46.8542 407.208 46.7708 407.375 46.6875C407.542 46.6042 407.708 46.5625 407.875 46.5625C409.375 45.5208 410.854 44.3542 412.312 43.0625C413.812 41.7708 414.979 40.2917 415.812 38.625C417.021 38.0417 418.167 37.375 419.25 36.625C420.333 35.8333 421.521 35.25 422.812 34.875L424.25 33.4375C424.458 33.7708 424.708 33.8542 425 33.6875C425.292 33.4792 425.583 33.25 425.875 33C426.167 32.75 426.438 32.6042 426.688 32.5625C426.979 32.5208 427.25 32.8125 427.5 33.4375C427.917 34.5208 428.021 35.5833 427.812 36.625C427.604 37.625 427.271 38.625 426.812 39.625C426.396 40.5833 425.958 41.5625 425.5 42.5625C425.042 43.5625 424.771 44.5833 424.688 45.625C424.688 45.875 424.688 46.1458 424.688 46.4375C424.688 46.6875 424.667 46.9583 424.625 47.25C424.542 48.125 424.417 49.0833 424.25 50.125C424.125 51.125 424.188 52.0417 424.438 52.875C424.646 53.625 425.083 54.2917 425.75 54.875C426.417 55.4583 427 56.0417 427.5 56.625C427.792 56.5833 428.083 56.6042 428.375 56.6875C428.667 56.7708 428.938 56.8542 429.188 56.9375C429.479 57.0208 429.75 57.0625 430 57.0625C430.25 57.0208 430.5 56.875 430.75 56.625C431.042 56.5 431.312 56.5208 431.562 56.6875C431.854 56.8125 432.125 56.9792 432.375 57.1875C432.625 57.3958 432.875 57.5833 433.125 57.75C433.417 57.875 433.729 57.875 434.062 57.75ZM419.75 25.8125C419.292 25.4375 418.917 25.0417 418.625 24.625C418.333 24.2083 418.083 23.8125 417.875 23.4375C417.667 23.0208 417.438 22.625 417.188 22.25C416.979 21.875 416.729 21.5417 416.438 21.25C416.271 21.0417 416 20.9167 415.625 20.875C415.292 20.7917 414.917 20.7917 414.5 20.875C414.125 20.9167 413.771 21.0625 413.438 21.3125C413.146 21.5625 412.938 21.8958 412.812 22.3125C412.771 22.4375 412.688 22.5833 412.562 22.75C412.479 22.9167 412.271 22.9792 411.938 22.9375C411.729 23.3125 411.354 23.625 410.812 23.875C410.312 24.0833 409.833 24.4583 409.375 25L407.5 26.0625L407.812 26.5C407.479 26.5833 407.146 26.6042 406.812 26.5625C406.479 26.4792 406.104 26.3958 405.688 26.3125C405.354 25.3125 405.458 24.3125 406 23.3125C406.542 22.3125 407.354 21.6042 408.438 21.1875C408.771 20.3958 409.146 19.8542 409.562 19.5625C410.021 19.2708 410.604 18.8542 411.312 18.3125C411.562 18.1042 411.958 17.875 412.5 17.625C413.083 17.375 413.479 17.1458 413.688 16.9375C413.979 16.6875 414.312 16.5833 414.688 16.625C415.104 16.625 415.542 16.7083 416 16.875C416.708 16.7917 417.25 16.875 417.625 17.125C417.75 17.3333 417.979 17.625 418.312 18C418.646 18.3333 418.854 18.5833 418.938 18.75C419.854 19.5417 420.479 20.1458 420.812 20.5625C421.188 20.9792 421.396 21.5625 421.438 22.3125C422.188 23.1458 422.917 23.4792 423.625 23.3125C424.375 23.1042 424.854 22.5625 425.062 21.6875C425.104 21.5208 425.188 21.3542 425.312 21.1875C425.438 21.0208 425.646 20.9792 425.938 21.0625C426.021 20.8542 426.188 20.6875 426.438 20.5625C426.688 20.4375 426.938 20.3125 427.188 20.1875C427.479 20.0625 427.729 19.8958 427.938 19.6875C428.188 19.4375 428.375 19.125 428.5 18.75L430.375 17.875L430.062 17.4375C430.396 17.3542 430.729 17.3542 431.062 17.4375C431.396 17.4792 431.771 17.5417 432.188 17.625C432.521 18.625 432.417 19.6458 431.875 20.6875C431.333 21.6875 430.521 22.3958 429.438 22.8125C429.104 23.5625 428.708 24.1458 428.25 24.5625C427.833 24.9792 427.271 25.4792 426.562 26.0625C426.354 26.2292 425.958 26.3958 425.375 26.5625C424.792 26.6875 424.396 26.8542 424.188 27.0625C423.896 27.3125 423.542 27.4375 423.125 27.4375C422.75 27.4375 422.333 27.3333 421.875 27.125C421.167 27.2083 420.625 27.125 420.25 26.875C420.125 26.6667 420.021 26.4792 419.938 26.3125C419.896 26.1458 419.833 25.9792 419.75 25.8125ZM479.938 40.375C480.104 41 480.042 41.5417 479.75 42C479.458 42.4167 479.062 42.7917 478.562 43.125C478.104 43.4583 477.583 43.7708 477 44.0625C476.458 44.3125 476 44.6042 475.625 44.9375C473.75 45.3542 472.042 45.6667 470.5 45.875C469 46.0417 467.333 46.2708 465.5 46.5625C464.958 46.6458 464.438 46.6458 463.938 46.5625C463.479 46.4375 463 46.3958 462.5 46.4375C462.208 46.4375 461.938 46.4375 461.688 46.4375C461.438 46.3958 461.188 46.3958 460.938 46.4375C459.979 46.5208 459.354 46.8542 459.062 47.4375C458.771 47.9792 458.521 48.625 458.312 49.375C458.146 50.0833 457.917 50.7708 457.625 51.4375C457.375 52.0625 456.812 52.5 455.938 52.75C455.854 52.9583 455.875 53.1458 456 53.3125C456.167 53.4792 456.292 53.625 456.375 53.75C455.667 53.9583 455.188 54.3333 454.938 54.875C454.729 55.4167 454.542 55.9583 454.375 56.5C454.208 57.0417 453.958 57.5 453.625 57.875C453.333 58.25 452.75 58.375 451.875 58.25C450.583 59.625 449.062 60.7292 447.312 61.5625C445.562 62.4375 443.75 63 441.875 63.25C441.542 63.0833 441.208 62.875 440.875 62.625C440.583 62.375 440.271 62.1458 439.938 61.9375C439.646 61.7292 439.312 61.5625 438.938 61.4375C438.604 61.3542 438.208 61.3542 437.75 61.4375C437.708 60.5625 437.542 59.75 437.25 59C436.917 58.25 436.5 57.5417 436 56.875C435.917 56.125 436.021 55.4375 436.312 54.8125C436.562 54.1458 436.833 53.5 437.125 52.875C437.417 52.25 437.667 51.625 437.875 51C438.042 50.3333 438 49.5833 437.75 48.75C438.167 48.5 438.438 48.2083 438.562 47.875C438.729 47.5417 438.833 47.2083 438.875 46.875C438.958 46.5 439.062 46.1667 439.188 45.875C439.312 45.5417 439.604 45.2708 440.062 45.0625C439.729 44.0625 439.771 43.3333 440.188 42.875C440.646 42.375 441.188 41.9375 441.812 41.5625C442.438 41.1875 443.021 40.7708 443.562 40.3125C444.104 39.8542 444.312 39.1667 444.188 38.25C444.438 38 444.729 37.7917 445.062 37.625C445.396 37.4583 445.708 37.3125 446 37.1875C446.333 37.0208 446.646 36.8542 446.938 36.6875C447.229 36.5208 447.5 36.2917 447.75 36C447.458 35.7917 447.312 35.5833 447.312 35.375C447.354 35.1667 447.417 34.9583 447.5 34.75C447.583 34.5 447.667 34.25 447.75 34C447.875 33.75 447.875 33.5 447.75 33.25C448.875 33.4167 449.854 33.2708 450.688 32.8125C451.562 32.3125 452.375 31.8125 453.125 31.3125C453.917 30.8125 454.708 30.4583 455.5 30.25C456.292 30.0417 457.208 30.2917 458.25 31C458.333 31.2917 458.458 31.7292 458.625 32.3125C458.833 32.8542 459.021 33.4167 459.188 34C459.396 34.5833 459.583 35.1458 459.75 35.6875C459.917 36.2292 460.021 36.625 460.062 36.875C460.062 37.0833 460.062 37.4167 460.062 37.875C460.062 38.3333 460.062 38.8333 460.062 39.375C460.062 39.875 460.062 40.3542 460.062 40.8125C460.062 41.2708 460.062 41.625 460.062 41.875C461.271 42.5833 462.479 43.0208 463.688 43.1875C464.896 43.3125 466.104 43.0208 467.312 42.3125C467.771 42.7292 468.208 42.8542 468.625 42.6875C469.042 42.4792 469.438 42.25 469.812 42C470.229 41.75 470.646 41.625 471.062 41.625C471.479 41.5833 471.896 41.9167 472.312 42.625C472.896 42.0833 473.5 41.75 474.125 41.625C474.75 41.4583 475.396 41.375 476.062 41.375C476.729 41.3333 477.375 41.2708 478 41.1875C478.667 41.1042 479.312 40.8333 479.938 40.375ZM455.938 41.4375C455.938 40.8125 456.042 40.1458 456.25 39.4375C456.458 38.7292 456.625 38.0417 456.75 37.375C456.875 36.6667 456.854 36 456.688 35.375C456.562 34.75 456.167 34.1875 455.5 33.6875C455.042 33.9375 454.667 34.2917 454.375 34.75C454.083 35.1667 453.792 35.6042 453.5 36.0625C453.208 36.4792 452.854 36.8333 452.438 37.125C452.062 37.4167 451.562 37.5 450.938 37.375C450.729 37.875 450.729 38.2917 450.938 38.625C451.146 38.9167 451.396 39.2083 451.688 39.5C451.979 39.75 452.25 40.0208 452.5 40.3125C452.792 40.6042 452.896 40.9792 452.812 41.4375C452.979 41.5625 453.208 41.6875 453.5 41.8125C453.792 41.8958 454.083 41.9583 454.375 42C454.708 42 455.021 41.9583 455.312 41.875C455.604 41.7917 455.812 41.6458 455.938 41.4375ZM455.5 46.4375C454.667 46.4375 453.938 46.25 453.312 45.875C452.729 45.4583 452.125 45 451.5 44.5C450.917 44 450.292 43.5417 449.625 43.125C449 42.6667 448.229 42.3958 447.312 42.3125C446.938 42.8125 446.5 43.2917 446 43.75C445.5 44.1667 445.062 44.625 444.688 45.125C444.312 45.625 444.042 46.1667 443.875 46.75C443.75 47.3333 443.854 48 444.188 48.75C443.229 49.2083 442.583 49.875 442.25 50.75C441.917 51.5833 441.688 52.5 441.562 53.5C441.479 54.5 441.396 55.5 441.312 56.5C441.229 57.5 440.958 58.3958 440.5 59.1875L441.875 58.25C442.042 58.3333 442.167 58.4583 442.25 58.625C442.375 58.7917 442.396 58.9792 442.312 59.1875C442.646 58.8542 443.021 58.6042 443.438 58.4375C443.854 58.2292 444.271 58.0833 444.688 58C445.146 57.875 445.583 57.7708 446 57.6875C446.458 57.6042 446.896 57.4792 447.312 57.3125C448.354 57.8958 449.104 58.0208 449.562 57.6875C450.021 57.3542 450.396 56.8542 450.688 56.1875C450.979 55.5208 451.292 54.8333 451.625 54.125C451.958 53.375 452.5 52.9167 453.25 52.75L452.812 52.3125C453.521 51.4375 454.146 50.5417 454.688 49.625C455.271 48.6667 455.542 47.6042 455.5 46.4375Z" fill="#fff"/>
</svg>
