<svg width="99" height="141" viewBox="0 0 99 141" fill="none" xmlns="http://www.w3.org/2000/svg">
<rect x="8.8" y="6.6" width="90.2" height="132" rx="2" fill="#515151"/>
<path d="M23.1 2C23.1 0.895429 23.9954 0 25.1 0H32.1C33.2046 0 34.1 0.895431 34.1 2V13.2H23.1V2Z" fill="#FC3030"/>
<rect x="5.5" y="8.8" width="90.2" height="132" rx="2" fill="#6F97FF"/>
<path d="M0 15.8C0 14.9716 0.671573 14.3 1.5 14.3H5.5V17.6H1.5C0.671573 17.6 0 16.9284 0 16.1V15.8Z" fill="black"/>
<path d="M0 25.7C0 24.8716 0.671573 24.2 1.5 24.2H5.5V27.5H1.5C0.671573 27.5 0 26.8284 0 26V25.7Z" fill="black"/>
<path d="M0 35.6C0 34.7716 0.671573 34.1 1.5 34.1H5.5V37.4H1.5C0.671573 37.4 0 36.7284 0 35.9V35.6Z" fill="black"/>
<path d="M0 45.5C0 44.6716 0.671573 44 1.5 44H5.5V47.3H1.5C0.671573 47.3 0 46.6284 0 45.8V45.5Z" fill="black"/>
<path d="M0 55.4C0 54.5716 0.671573 53.9 1.5 53.9H5.5V57.2H1.5C0.671573 57.2 0 56.5284 0 55.7V55.4Z" fill="black"/>
<path d="M0 65.3C0 64.4716 0.671573 63.8 1.5 63.8H5.5V67.1H1.5C0.671573 67.1 0 66.4284 0 65.6V65.3Z" fill="black"/>
<path d="M0 75.2C0 74.3716 0.671573 73.7 1.5 73.7H5.5V77H1.5C0.671573 77 0 76.3284 0 75.5V75.2Z" fill="black"/>
<path d="M0 85.1C0 84.2716 0.671573 83.6 1.5 83.6H5.5V86.9H1.5C0.671573 86.9 0 86.2284 0 85.4V85.1Z" fill="black"/>
<path d="M0 95C0 94.1716 0.671573 93.5 1.5 93.5H5.5V96.8H1.5C0.671573 96.8 0 96.1284 0 95.3V95Z" fill="black"/>
<path d="M0 104.9C0 104.072 0.671573 103.4 1.5 103.4H5.5V106.7H1.5C0.671573 106.7 0 106.028 0 105.2V104.9Z" fill="black"/>
<path d="M0 114.8C0 113.972 0.671573 113.3 1.5 113.3H5.5V116.6H1.5C0.671573 116.6 0 115.928 0 115.1V114.8Z" fill="black"/>
<path d="M0 124.7C0 123.872 0.671573 123.2 1.5 123.2H5.5V126.5H1.5C0.671573 126.5 0 125.828 0 125V124.7Z" fill="black"/>
<path d="M0 134.6C0 133.772 0.671573 133.1 1.5 133.1H5.5V136.4H1.5C0.671573 136.4 0 135.728 0 134.9V134.6Z" fill="black"/>
</svg>
